<svg width="96" height="106" fill="none" xmlns="http://www.w3.org/2000/svg"><path fill-rule="evenodd" clip-rule="evenodd" d="M16.013 85.672a1.228 1.228 0 00-.027.21v.012c-.004.082 0 .164.01.238a1.5 1.5 0 00.165.466 1.465 1.465 0 00-.472-.147 1.411 1.411 0 00-.238 0 1.167 1.167 0 00-.205.037l-.014.003c.016-.073.025-.147.028-.22a1.436 1.436 0 00-.01-.237v-.003a1.484 1.484 0 00-.171-.47c.181.086.344.14.478.151l.024.002c.06.004.132.003.213-.004v.002a1.22 1.22 0 00.22-.04zm15.83-54.23s-.414 8.346-5.087 16.697c.28-9.37-1.314-18.851-7.686-25.877 0 0 4.755 22.32-.971 36.01a620.75 620.75 0 01-2.494 5.882 809.437 809.437 0 00-4.196 4.435 8.78 8.78 0 00-2.346-3.014c-.53 5.838-7.999 13.29-8.114 21.133-.066 4.441 6.342 11.717 11.612 11.639 1.32-.02 4.254-1.01 7.188-2.38V89.64c-.35.06-.695.115-1.037.166-.765-1.023-2.498-2.573-3.084-2.623a.573.573 0 00-.213.018c-.466.147-2.014 1.771-2.14 2.245a.572.572 0 00-.008.214c.02.148.138.365.322.62-.283.01-.562.016-.836.02-.117-.207-.192-.393-.212-.545a1.398 1.398 0 01-.01-.238v-.002c.002-.073.011-.147.027-.22a1.11 1.11 0 01-.13.027.731.731 0 01-.089.014 1.416 1.416 0 01-.212.001l-.025-.002c-.222-.019-.522-.152-.858-.359a4.264 4.264 0 01-.23-1.048c.478.383.91.654 1.148.675a.578.578 0 00.213-.019c.467-.146 2.015-1.77 2.14-2.245a.582.582 0 00.009-.214c-.085-.646-2.065-2.616-3.072-3.163l.127-.739.032.015-.026-.05c.125-.722.256-1.468.38-2.23.621-.558 1.4-1.447 1.487-1.777a.578.578 0 00.01-.215c-.04-.298-.483-.878-1.048-1.47.028-.322.05-.644.068-.966.777.757 1.663 1.442 2.048 1.475a.575.575 0 00.214-.018c.466-.147 2.015-1.771 2.14-2.245a.58.58 0 00.008-.214c-.098-.744-2.706-3.24-3.451-3.305a.568.568 0 00-.213.02c-.178.055-.512.325-.865.664-.04-.286-.088-.57-.145-.851a4.43 4.43 0 01.508-.376l.002-.002.003-.002.003-.002.003-.001.003-.002.002-.002.003-.001.003-.002.003-.002.003-.001.002-.002.003-.002.003-.001.003-.002.002-.001.003-.002.003-.002.003-.001.002-.002.003-.001.003-.002.002-.001.002-.001h.001l.003-.003.003-.001.002-.001.003-.002.003-.002.002-.001h.002l.001-.002h.003l.002-.002.003-.002.002-.001.003-.002.003-.001h.001l.002-.001.002-.002.003-.001.002-.002.003-.001.002-.002h.003l.001-.001.002-.001.002-.001.003-.002.002-.001.003-.001.003-.002.002-.001.003-.002h.002l.003-.002.002-.001.003-.001.002-.002.003-.001.002-.001.003-.001.002-.002h.003l.002-.002.003-.001.002-.001a.748.748 0 01.112-.046 1.19 1.19 0 01.257-.05v.002a1.39 1.39 0 01.237-.002h.013l.006.001.007.001.006.001h.007l.006.002h.007l.006.002.007.001.007.001.006.001.007.002.007.001.007.001.007.002.007.001.007.002.007.002.007.001.007.002.007.002.007.002.007.002.008.001.007.003.007.002.008.002.007.002.007.002.008.002.007.003.008.002.007.003.008.002.008.003.007.002.008.003.007.003.008.003.008.002.008.003.008.003.008.003.008.003.008.004.008.003.008.003.008.003.008.003.008.004.008.003.008.004.008.003.009.004.008.003.008.004.008.004.009.003.008.004.008.004.009.004.008.004.009.004-.004-.008-.005-.009-.004-.008-.004-.008-.004-.008-.004-.008-.004-.009-.004-.008-.004-.008-.004-.008-.004-.008-.004-.008-.003-.008-.004-.008-.004-.008-.003-.007-.004-.008-.003-.008-.004-.008-.003-.008-.003-.007-.004-.008-.003-.008-.003-.007-.003-.008-.003-.007-.003-.008-.003-.007-.003-.008-.003-.007-.003-.008-.002-.007-.003-.008-.003-.007-.002-.007-.003-.007-.002-.008-.003-.007-.002-.007-.002-.007-.002-.007-.002-.007-.003-.007-.002-.007-.002-.007-.002-.007-.001-.007-.002-.007-.002-.007-.002-.007-.001-.006-.002-.007-.001-.007-.002-.006-.001-.007-.002-.007v-.006l-.002-.007-.001-.006-.001-.006-.001-.007-.001-.006-.001-.006-.001-.007a1.422 1.422 0 01-.012-.217v-.023c.004-.088.016-.176.038-.258.097-.36.59-1.006 1.12-1.562.478-.502 1.032-.978 1.395-1.149a.743.743 0 01.112-.045c.085-.028.173-.044.257-.051v.002a1.39 1.39 0 01.237-.002c.134.012.289.058.458.134a1.505 1.505 0 01-.15-.453 1.423 1.423 0 01-.012-.218v-.023c.004-.085.016-.172.038-.255.078-.296.397-.754.789-1.202a10.47 10.47 0 011.185-1.165.73.73 0 01.485-.183v-10.18h9.688c0-.221.1-.44.29-.584.094-.072.181-.132.256-.177a1.567 1.567 0 01.298-.141 1.08 1.08 0 01.257-.05v.002a1.39 1.39 0 01.237-.003c.14.012.29.054.446.12l.002.001a1.502 1.502 0 01-.14-.44 1.422 1.422 0 01-.012-.217v-.024c.004-.084.016-.171.038-.255.094-.359.588-1.007 1.12-1.564l.022-.023.022-.024.023-.023.023-.023.022-.023.001-.001.022-.023h.001l.022-.023.023-.023h.001l.022-.022.001-.002.022-.021.002-.002.021-.02.002-.003.021-.02.002-.002.021-.02.002-.003.022-.02.002-.002.02-.02.003-.002.021-.02.003-.003.02-.02.003-.002.02-.02.003-.002.02-.019.004-.002.02-.019.003-.003.02-.018.004-.003.02-.019.003-.002.02-.018.003-.004.02-.017.004-.003.02-.018.003-.003.02-.017.003-.004.02-.016.004-.004.019-.016.004-.004.019-.016.004-.004.018-.015.005-.004.018-.016.005-.004.018-.015.005-.004.018-.015.005-.004.017-.014.005-.005.018-.014.005-.004.017-.014.005-.004.017-.014.006-.004.017-.013.005-.005.017-.012.005-.005.016-.013.006-.004.016-.012.006-.005.016-.012.006-.004.015-.012.006-.004.022-.016.015-.011.006-.005.015-.01.006-.005.015-.01.006-.005.015-.01.006-.004.014-.01.007-.004.014-.01.006-.004.014-.01.007-.004.013-.008.006-.005.013-.008.007-.004.013-.008.007-.005.012-.007.007-.005.012-.007.008-.004.012-.007.007-.005.011-.006.007-.004.019-.01.01-.007.008-.004.01-.005.008-.004.01-.006.008-.003.01-.005.007-.004.01-.005.007-.003a.743.743 0 01.112-.046c.054-.017.112-.03.172-.038a.744.744 0 01.085-.012 1.4 1.4 0 01.237 0c.195.017.45.121.737.287a1.414 1.414 0 01-.156-.44 1.37 1.37 0 01-.01-.232c.003-.086.014-.173.036-.255.092-.35.57-.977 1.083-1.515.514-.54 1.12-1.048 1.463-1.156.05-.016.103-.027.157-.036a.71.71 0 01.093-.014c.081-.007.16-.006.233 0 .166.015.377.094.614.221a1.24 1.24 0 01-.115-.353 1.34 1.34 0 01.026-.482c.091-.34.55-.943 1.043-1.46.438-.46.944-.895 1.287-1.063a.852.852 0 01.286-.088.929.929 0 01.24-.015c.025 0 .05 0 .075.002.134.011.297.066.48.154l-.004-.023a1.304 1.304 0 01.025-.477c.089-.328.527-.905.997-1.399.473-.496 1.032-.964 1.355-1.065a1.07 1.07 0 01.148-.034.75.75 0 01.093-.014 1.19 1.19 0 01.148-.002c.024 0 .05 0 .074.002a.995.995 0 01.225.05 1.32 1.32 0 01-.005-.121v-.007l.001-.031a1.13 1.13 0 01.034-.235c.082-.31.49-.85.927-1.31.377-.394.815-.77 1.124-.93a.74.74 0 01.14-.06c.08-.026.16-.04.236-.047v.003c.067-.006.125-.007.175-.005l.039.002c.107.01.236.05.38.115v-.029a1.09 1.09 0 01.034-.23c.076-.29.45-.789.85-1.207.4-.421.88-.82 1.167-.91a.972.972 0 01.133-.03 1.217 1.217 0 01.297-.014c.11.01.246.056.4.133l.008-.048a.788.788 0 01.015-.072c.073-.276.421-.742.792-1.131.373-.391.822-.763 1.095-.848.076-.024.15-.038.219-.044h.003a1.12 1.12 0 01.166-.001l.029.001c.19.017.47.157.785.37v-.034l.001-.01a1.07 1.07 0 01.032-.22c.073-.277.422-.742.793-1.132.373-.39.822-.762 1.094-.848a1.027 1.027 0 01.387-.045l.03.002c.262.022.682.268 1.128.61.116-.262.396-.626.691-.936.345-.361.763-.705 1.02-.786a.942.942 0 01.122-.028.71.71 0 01.206-.017c.026 0 .05 0 .076.002.392.034 1.06.503 1.608 1.027l.06.06c.118-.225.336-.503.562-.741.298-.312.665-.612.9-.686a.966.966 0 01.382-.04c.34.03.89.4 1.349.829.109-.185.276-.396.448-.577.26-.271.584-.534.8-.601h.002a.931.931 0 01.195-.04c.049-.003.106-.002.167.003v-.002c.323.027.836.378 1.245.769.407.39.78.888.823 1.211a.99.99 0 01-.02.366v.003c-.02.072-.06.158-.114.25a.983.983 0 01.242-.125h.006a.926.926 0 01.365-.036v-.003c.32.028.833.379 1.241.77.408.39.781.888.823 1.21a.99.99 0 01-.02.367v.003c-.058.218-.303.554-.56.824a3.44 3.44 0 01-.556.478l.06.058c.47.45.898 1.014.947 1.368.008.055.011.117.009.18v.005a.937.937 0 01-.03.202v.002a.512.512 0 01-.021.066l-.002.005a.726.726 0 01-.032.074c-.111.23-.342.531-.584.784-.228.24-.497.471-.716.6l.14.13c.547.524 1.044 1.172 1.096 1.563.007.058.011.124.009.188v.006a.995.995 0 01-.032.214c-.069.262-.39.695-.734 1.055-.296.31-.647.609-.904.737.361.43.624.839.658 1.1a1.16 1.16 0 01.01.198v.003c-.003.07-.013.143-.032.217l-.001.003c-.072.277-.42.743-.792 1.132-.372.39-.822.763-1.094.848a1.036 1.036 0 01-.22.043l-.04.003c.225.306.376.578.4.767a1.042 1.042 0 01-.023.416v.005c-.072.277-.42.743-.792 1.132-.372.391-.822.763-1.094.848a.96.96 0 01-.117.03c.081.15.134.282.148.39a1.215 1.215 0 01-.023.435c-.077.291-.45.789-.85 1.208-.4.42-.881.818-1.168.909a1.077 1.077 0 01-.222.042l-.006.003-.028.002c.07.138.115.263.13.369.009.066.013.14.01.217v.01l-.001.006a1.11 1.11 0 01-.033.222c-.055.209-.22.477-.437.75a7.7 7.7 0 01-.206.248h1.859c16.648-19.505 24.798-39.7 24.798-39.7l-10.081 9.754C83.39 14.638 89.894 7.34 96 0c0 0-11.727 5.744-32.525 21.025-10.687 7.852-20.277 16.053-29.36 24.62.545-4.872.053-9.74-2.273-14.203zm10.29 60.332c0 2.297-1.475 3.446-4.424 3.446H22.17V55.75h15.54c2.949 0 4.424 1.166 4.424 3.5v8.096c0 1.313-.738 2.06-2.212 2.243 1.474.219 2.212.984 2.212 2.297v19.888zM33.23 73.09h-2.158v15.238h2.158V73.09zm0-10.393h-2.158v3.446h2.158v-3.446zm31.13 29.077c0 2.297-1.475 3.446-4.424 3.446H48.822c-2.949 0-4.423-1.148-4.423-3.446V55.75H53.3v32.578h2.158V55.75h8.902v36.024zm7.877-7.778c-3.741 0-5.611-1.878-5.611-5.635V55.75h8.901v21.353h2.158V55.75h8.902v22.61c0 3.756-1.816 5.635-5.449 5.635V95.22h-8.901V83.996zM8.529 65.534c-1.76-1.438-8.731 4.479-8.524 7.121 1.037-.323 4.866-.545 5.071.53 1.083-1.92 3.2-5.52 3.453-7.651zm20.062 36.34a6.012 6.012 0 01-.067-.495c-.027-.225-.052-.413-.071-.56a4.121 4.121 0 01-.344 1.065L26.153 106l-1.956-4.2a5.916 5.916 0 01-.368-.981 4.867 4.867 0 01-.039.509 5.873 5.873 0 01-.1.556l-.801 3.803h-1.12l1.768-8.047 2.208 4.873c.033.075.085.205.155.383.07.18.153.402.253.665.072-.222.185-.503.338-.843.04-.092.072-.162.09-.211l2.158-4.868 1.808 8.048h-1.13l-.826-3.813zm10.319 3.813v-7.724h4.174v1.07h-2.96v1.933h2.96v1.102h-2.96v2.495h2.96v1.124H38.91zm12.959 0v-7.724h1.637c1.067 0 1.817.056 2.253.166.434.112.814.297 1.142.556.432.342.76.78.983 1.315.224.534.335 1.145.335 1.83 0 .686-.111 1.293-.335 1.822a3.28 3.28 0 01-.983 1.313c-.328.259-.7.445-1.118.556-.416.11-1.067.166-1.95.166H51.87zm1.213-1.134h1.024c.561 0 .983-.038 1.264-.116a1.83 1.83 0 00.734-.39c.283-.251.495-.56.636-.933.142-.371.213-.803.213-1.294 0-.494-.071-.924-.213-1.295a2.325 2.325 0 00-.636-.932 1.872 1.872 0 00-.758-.391c-.295-.077-.757-.115-1.385-.115h-.879v5.466zm13.943 1.134v-7.724h1.214v7.724h-1.214zm15.295 0l-.847-1.988h-2.964l-.869 1.988h-1.276l3.622-8.026 3.618 8.026H82.32zm-3.361-3.036h2.085l-.767-1.76a6.99 6.99 0 01-.138-.387 9.097 9.097 0 01-.143-.488c-.04.169-.084.326-.13.471a6.671 6.671 0 01-.14.404l-.767 1.76zm-59.21-13.476c-1.02-.579-2.944-2.502-3.027-3.138a.576.576 0 01.008-.215c.125-.473 1.673-2.097 2.14-2.244a.574.574 0 01.213-.019c.155.013.39.132.666.317v5.3zm-5.206-19.312a.57.57 0 00-.009.214c.098.744 2.706 3.24 3.451 3.305a.576.576 0 00.213-.019c.296-.093 1.024-.777 1.551-1.388v-2.04c-.84-1.004-2.321-2.29-2.853-2.335a.569.569 0 00-.213.019c-.467.146-2.015 1.77-2.14 2.244zm3.455-3.624a.57.57 0 00-.009.214c.055.416.898 1.384 1.76 2.165v-4.38c-.639.505-1.651 1.621-1.751 2zM31.23 53.322c-.21-.13-.39-.21-.515-.22a.566.566 0 00-.213.019 1.276 1.276 0 00-.334.2h1.062zM12.175 81.46a.573.573 0 00-.009.215c.098.743 2.706 3.24 3.451 3.304a.576.576 0 00.213-.019c.467-.146 2.015-1.77 2.14-2.244a.577.577 0 00.009-.214c-.098-.744-2.706-3.24-3.451-3.305a.57.57 0 00-.213.019c-.467.146-2.015 1.77-2.14 2.245zm3.455-3.624a.572.572 0 00-.01.214c.099.744 2.707 3.24 3.452 3.305a.578.578 0 00.213-.019c.107-.034.273-.146.464-.305v-4.25c-.7-.644-1.427-1.18-1.767-1.208a.567.567 0 00-.213.019c-.466.146-2.015 1.77-2.14 2.244zm3.455-3.624a.572.572 0 00-.01.214c.03.228.298.621.674 1.06v-2.218c-.341.386-.615.756-.664.944zm49.888-40.26a.23.23 0 01-.087.007c-.303-.026-1.362-1.04-1.402-1.342a.234.234 0 01.003-.087c.051-.193.68-.853.87-.913a.235.235 0 01.087-.007c.302.026 1.362 1.04 1.402 1.343a.233.233 0 01-.004.087c-.05.192-.68.852-.87.912zm-5.395-1.566a.282.282 0 01-.105.01c-.365-.032-1.643-1.255-1.69-1.62a.282.282 0 01.003-.104c.062-.233.82-1.028 1.049-1.1a.285.285 0 01.104-.01c.365.032 1.643 1.256 1.691 1.62a.285.285 0 01-.004.105c-.062.232-.82 1.027-1.049 1.1zm2.543 2.436a.284.284 0 01-.104.009c-.366-.032-1.643-1.255-1.691-1.62a.28.28 0 01.004-.104c.061-.232.82-1.028 1.048-1.1a.285.285 0 01.105-.009c.365.031 1.643 1.255 1.69 1.62a.287.287 0 01-.004.104c-.061.232-.82 1.028-1.048 1.1zm2.544 2.435a.282.282 0 01-.105.01c-.365-.032-1.643-1.255-1.69-1.62a.278.278 0 01.004-.105c.06-.232.82-1.027 1.048-1.1a.283.283 0 01.105-.008c.364.03 1.642 1.255 1.69 1.619a.285.285 0 01-.004.105c-.061.232-.82 1.027-1.048 1.1zm-.358 3.856a.334.334 0 01-.126.011c-.44-.037-1.98-1.512-2.038-1.951a.34.34 0 01.005-.127c.074-.28.988-1.24 1.264-1.326a.342.342 0 01.126-.011c.44.038 1.98 1.513 2.038 1.952a.337.337 0 01-.005.127c-.074.28-.988 1.239-1.264 1.325zm-1.135 3.453a.374.374 0 01-.14.012c-.486-.042-2.56-2.028-2.624-2.514a.379.379 0 01.005-.14c.082-.309 1.092-1.37 1.397-1.465a.376.376 0 01.139-.012c.487.042 2.561 2.028 2.625 2.514a.383.383 0 01-.005.14c-.082.309-1.093 1.369-1.397 1.465zm-1.769 3.214a.374.374 0 01-.14.012c-.486-.042-2.684-2.147-2.748-2.632a.378.378 0 01.005-.14c.082-.31 1.093-1.37 1.397-1.466a.378.378 0 01.14-.012c.486.042 2.685 2.147 2.748 2.633a.38.38 0 01-.005.14c-.082.309-1.092 1.37-1.397 1.465zm-2.01 2.971a.408.408 0 01-.152.014c-.532-.046-2.765-2.185-2.835-2.715a.42.42 0 01.006-.153c.09-.338 1.194-1.497 1.527-1.602a.411.411 0 01.153-.013c.531.046 2.765 2.184 2.835 2.714a.415.415 0 01-.007.153c-.089.339-1.194 1.498-1.527 1.602zm-3.518 2.57c-.83-.682-1.813-1.74-1.865-2.132a.46.46 0 01.007-.17c.1-.377 1.331-1.67 1.702-1.786a.457.457 0 01.17-.015c.593.05 2.793 2.157 2.87 2.748a.457.457 0 01-.007.17c-.058.222-.505.757-.94 1.186h-1.937zm-4.189 0c.458-.526 1.081-1.111 1.336-1.191a.504.504 0 01.185-.016c.323.027 1.048.58 1.705 1.208h-3.226zm9.66-15.044a.335.335 0 01-.127.011c-.44-.037-1.608-1.156-1.666-1.595a.34.34 0 01.005-.127c.074-.28.989-1.239 1.264-1.326a.339.339 0 01.126-.01c.44.037 1.609 1.156 1.667 1.595a.344.344 0 01-.006.127c-.074.28-.988 1.239-1.263 1.325zm-1.767 2.849a.373.373 0 01-.14.012c-.486-.042-2.064-1.553-2.128-2.039a.374.374 0 01.006-.14c.081-.309 1.092-1.37 1.396-1.465a.37.37 0 01.14-.012c.486.042 2.064 1.553 2.128 2.038a.376.376 0 01-.005.14c-.082.31-1.093 1.37-1.397 1.466zm-2.007 2.986a.376.376 0 01-.14.012c-.486-.042-2.513-1.983-2.577-2.469a.376.376 0 01.006-.14c.081-.309 1.092-1.37 1.396-1.465a.374.374 0 01.14-.012c.486.042 2.514 1.983 2.577 2.469a.372.372 0 01-.005.14c-.082.309-1.093 1.369-1.397 1.465zm-2.197 2.792a.41.41 0 01-.152.013c-.532-.046-2.718-2.14-2.788-2.67a.414.414 0 01.006-.153c.09-.338 1.194-1.497 1.527-1.602a.408.408 0 01.152-.013c.532.046 2.719 2.14 2.788 2.67a.41.41 0 01-.006.153c-.09.338-1.194 1.497-1.527 1.602zm-2.47 3.05a.453.453 0 01-.17.015c-.593-.051-2.916-2.276-2.994-2.867a.457.457 0 01.007-.171c.099-.377 1.331-1.67 1.702-1.786a.454.454 0 01.17-.015c.593.051 2.916 2.276 2.994 2.867a.46.46 0 01-.007.17c-.1.378-1.33 1.67-1.702 1.787zm-2.72 3.195a.5.5 0 01-.185.016c-.648-.055-3.041-2.346-3.126-2.993a.503.503 0 01.007-.186c.11-.413 1.456-1.826 1.862-1.953a.5.5 0 01.185-.016c.649.055 3.042 2.346 3.127 2.993a.502.502 0 01-.008.187c-.109.412-1.455 1.825-1.861 1.952zm-6.44.173a.424.424 0 01.013-.071c.115-.436 1.538-1.93 1.967-2.064a.528.528 0 01.196-.017c.49.042 1.857 1.23 2.629 2.152h-4.804zM58.039 31.28a.338.338 0 00-.006.127c.058.439 1.599 1.914 2.04 1.952a.36.36 0 00.125-.011c.275-.087 1.19-1.046 1.264-1.326a.344.344 0 00.005-.127c-.058-.439-1.599-1.914-2.039-1.952a.332.332 0 00-.126.011c-.275.087-1.19 1.046-1.263 1.326zm-3.39 1.295a.38.38 0 00-.005.14c.064.485 2.138 2.471 2.625 2.513a.376.376 0 00.14-.012c.304-.096 1.314-1.156 1.396-1.465a.373.373 0 00.005-.14c-.063-.485-2.138-2.472-2.625-2.514a.38.38 0 00-.139.012c-.304.096-1.315 1.157-1.396 1.466zm-3.122 1.917a.38.38 0 00-.006.14c.064.486 2.262 2.59 2.75 2.633a.372.372 0 00.138-.013c.305-.095 1.316-1.156 1.397-1.465a.382.382 0 00.006-.14c-.064-.485-2.263-2.59-2.75-2.632a.373.373 0 00-.138.012c-.305.096-1.316 1.156-1.397 1.465zm-2.87 2.148a.412.412 0 00-.007.153c.07.53 2.304 2.669 2.836 2.715a.412.412 0 00.152-.014c.333-.104 1.438-1.263 1.527-1.602a.419.419 0 00.006-.152c-.07-.53-2.303-2.67-2.835-2.715a.406.406 0 00-.152.013c-.333.105-1.438 1.264-1.527 1.602zm-3.054 2.491a.46.46 0 00-.007.17c.078.592 2.277 2.698 2.87 2.75a.456.456 0 00.17-.016c.371-.116 1.603-1.409 1.702-1.786a.457.457 0 00.007-.17c-.078-.592-2.277-2.698-2.87-2.749a.456.456 0 00-.17.015c-.371.117-1.603 1.41-1.703 1.786zm-3.07 2.86a.49.49 0 00-.008.185c.084.647 2.353 2.82 3.002 2.875a.5.5 0 00.185-.016c.406-.127 1.753-1.54 1.861-1.953a.498.498 0 00.008-.186c-.085-.647-2.354-2.82-3.002-2.875a.49.49 0 00-.185.016c-.406.128-1.753 1.54-1.862 1.953zM39.1 44.96a.521.521 0 00-.008.197c.09.683 2.487 2.98 3.173 3.038a.529.529 0 00.196-.017c.429-.134 1.853-1.628 1.967-2.064a.53.53 0 00.008-.197c-.09-.683-2.488-2.98-3.173-3.038a.519.519 0 00-.196.017c-.429.135-1.852 1.628-1.967 2.064zm-3.554 3.332a.548.548 0 00-.008.206c.094.714 2.6 3.113 3.316 3.175a.55.55 0 00.204-.019c.449-.14 1.936-1.701 2.056-2.156a.553.553 0 00.009-.206c-.094-.714-2.6-3.114-3.316-3.175a.546.546 0 00-.205.018c-.448.14-1.936 1.702-2.056 2.157zm-3.728 3.449a.57.57 0 00-.009.214c.037.28.432.812.95 1.367h4.681a1.23 1.23 0 00.173-.326.578.578 0 00.009-.214c-.098-.743-2.706-3.24-3.451-3.304a.57.57 0 00-.213.018c-.467.147-2.015 1.771-2.14 2.245zM61 34.116a.341.341 0 00-.005.127c.057.439 1.226 1.558 1.666 1.595a.34.34 0 00.126-.01c.275-.087 1.19-1.047 1.264-1.326a.364.364 0 00.005-.127c-.058-.439-1.226-1.558-1.667-1.596a.338.338 0 00-.126.011c-.275.087-1.19 1.046-1.263 1.326zm-2.758 1.899a.376.376 0 00-.006.14c.064.485 1.642 1.996 2.129 2.038a.372.372 0 00.139-.012c.304-.096 1.315-1.156 1.396-1.465a.376.376 0 00.006-.14c-.064-.485-1.642-1.997-2.129-2.038a.371.371 0 00-.139.012c-.304.096-1.315 1.156-1.396 1.465zm-2.885 2.145a.375.375 0 00-.006.14c.064.486 2.092 2.427 2.578 2.469a.378.378 0 00.14-.012c.304-.096 1.314-1.156 1.396-1.465a.378.378 0 00.006-.14c-.064-.486-2.092-2.427-2.578-2.469a.377.377 0 00-.14.012c-.304.096-1.315 1.156-1.396 1.465zm-2.683 2.328a.41.41 0 00-.006.153c.07.53 2.256 2.623 2.788 2.67a.415.415 0 00.152-.014c.333-.105 1.438-1.264 1.527-1.602a.408.408 0 00.006-.153c-.07-.53-2.256-2.624-2.788-2.67a.405.405 0 00-.152.014c-.333.104-1.438 1.264-1.527 1.602zM49.747 43.1a.46.46 0 00-.007.17c.078.592 2.401 2.817 2.994 2.868a.455.455 0 00.17-.015c.371-.117 1.603-1.409 1.702-1.786a.453.453 0 00.007-.17c-.078-.592-2.401-2.817-2.994-2.868a.453.453 0 00-.17.015c-.371.117-1.603 1.41-1.702 1.786zm-3.061 2.868a.504.504 0 00-.008.187c.086.646 2.478 2.938 3.127 2.993a.502.502 0 00.185-.016c.406-.127 1.753-1.54 1.862-1.953a.505.505 0 00.007-.186c-.085-.647-2.478-2.938-3.126-2.994a.501.501 0 00-.185.017c-.406.127-1.753 1.54-1.862 1.953zm-3.169 3.223a.523.523 0 00-.008.197c.09.683 2.488 2.979 3.173 3.038a.527.527 0 00.196-.017c.43-.135 1.853-1.628 1.967-2.064a.531.531 0 00.009-.197c-.09-.684-2.488-2.98-3.174-3.039a.514.514 0 00-.196.018c-.428.134-1.852 1.628-1.967 2.064zm-3.512 3.37a.546.546 0 00-.009.206c.026.195.23.514.528.876.538.142 1.022.33 1.452.564v-.885h3.519c-.46-.9-2.58-2.88-3.23-2.935a.546.546 0 00-.205.018c-.448.14-1.936 1.701-2.055 2.157zm26.424-21.044a.23.23 0 01-.086.007c-.303-.026-1.363-1.04-1.403-1.343a.235.235 0 01.004-.087c.05-.192.68-.852.87-.912a.234.234 0 01.086-.008c.303.026 1.363 1.041 1.402 1.343a.233.233 0 01-.003.087c-.051.193-.68.853-.87.913zm.464.575l-.002.001v.001l.002-.002zm-4.998 13.463a.993.993 0 01-.106-.3 1.062 1.062 0 01.023-.419v-.003l.01-.031-.032.01a1.028 1.028 0 01-.212.044.853.853 0 01.056.198 1.215 1.215 0 01-.024.435.993.993 0 01-.076.19 1.02 1.02 0 01.187-.085c.06-.019.118-.031.174-.039zM59.78 47.52a.988.988 0 01-.188.086 1.062 1.062 0 01-.229.045.689.689 0 01-.079.002h-.02c.04.093.065.176.075.25l.003.034c.006.057.009.118.007.178v.006a1.085 1.085 0 01-.035.235 1.46 1.46 0 01-.177.371c.138-.094.263-.163.364-.195a1.082 1.082 0 01.3-.048 1.091 1.091 0 01-.121-.338v-.003a1.095 1.095 0 01.024-.432.914.914 0 01.076-.19zm4.212-4.713c-.174-.254-.289-.48-.31-.647a1.18 1.18 0 010-.303.994.994 0 01-.106.015h-.003a1.18 1.18 0 01-.112.003c.133.209.219.395.238.538a1.177 1.177 0 01-.023.421l-.01.031.032-.01a1.038 1.038 0 01.294-.048zm-1.17-6.06a1.166 1.166 0 01-.004-.147v-.005l.002-.026-.03.003h-.003a.984.984 0 01-.111.002h-.037a1.164 1.164 0 01-.005.187.923.923 0 01.08-.01v.002c.04-.004.075-.005.108-.006zm-2.24 2.17a.984.984 0 01-.247.012l-.032-.002a.834.834 0 01-.15-.029.75.75 0 01.042.16 1.173 1.173 0 01.006.255l.057-.007.029-.002a1.3 1.3 0 01.166.002h.003l.024.003a.74.74 0 01.138.03.837.837 0 01-.033-.144 1.193 1.193 0 01-.004-.278zM57.485 50.46a1.48 1.48 0 00-.177.372c-.019.07-.03.147-.033.222v.006l-.001.003v.007c-.003.06 0 .12.006.176l.004.038c.004.033.01.066.02.101l-.037-.004a1.33 1.33 0 00-.22 0v.002h-.003a1.254 1.254 0 00-.24.046.882.882 0 00-.072.026 1.144 1.144 0 00.058-.314v-.006a1.317 1.317 0 00-.011-.22.954.954 0 00-.056-.21c.044.002.09.002.137-.002h.005l.023-.001c.077-.007.157-.022.236-.047.1-.032.224-.101.36-.195zm-7.278.024a1.078 1.078 0 00-.452-.047v.002h-.002a1.335 1.335 0 00-.186.03 1.243 1.243 0 00.011-.416 1.016 1.016 0 00-.06-.223.965.965 0 00.445.051.744.744 0 00.098-.014 1.61 1.61 0 00.1-.021 1.175 1.175 0 00-.024.195v.006a.972.972 0 00.07.437zm2.363-3.166a1.2 1.2 0 00.024-.194v-.038a1.313 1.313 0 00-.017-.23.71.71 0 00.093.015c.058.005.13.005.217-.003v.003c.042-.004.085-.01.13-.02a1.22 1.22 0 00-.012.115v.016a1.094 1.094 0 00.028.307 1.29 1.29 0 00-.463.028zm-5.535 5.81l-.008.04-.001.007a.732.732 0 00-.015.147h-.783a.734.734 0 00-.067-.308c.174.082.33.134.46.145.06.005.137.005.225-.003v.003c.061-.005.125-.016.189-.032zm-4.128-3.273c-.222-.115-.422-.187-.583-.2a1.397 1.397 0 00-.232-.001.758.758 0 00-.098.015c-.05.009-.1.02-.152.037v-.002l-.03.01.008-.03a1.2 1.2 0 00.037-.254c.003-.08-.001-.16-.011-.233a1.419 1.419 0 00-.156-.44c.195.098.37.159.513.171.06.005.137.005.225-.002v.002c.08-.007.165-.023.249-.049a1.15 1.15 0 00.224-.104c-.043.084-.075.16-.093.226a1.34 1.34 0 00-.026.482c.015.108.058.234.125.373zm-3.603 2.492l-.008.028a1.18 1.18 0 00-.037.252c-.003.081.001.162.01.235.024.18.098.375.21.575a12.066 12.066 0 00-1.21-.105 1.227 1.227 0 00.088-.408 1.426 1.426 0 00-.012-.237 1.576 1.576 0 00-.196-.518c.248.136.47.221.642.236.063.005.14.006.23-.002v.002a1.19 1.19 0 00.256-.05l.027-.008zm5.737-5.817c.083-.048.159-.084.225-.104v.002c.047-.015.094-.026.142-.035a.753.753 0 01.104-.017c.047-.004.1-.004.155-.002a1.061 1.061 0 01.334.064.922.922 0 01-.049-.188 1.346 1.346 0 01-.011-.188v-.038a1.162 1.162 0 01.059-.315.814.814 0 01-.219.06.748.748 0 01-.094.015 1.313 1.313 0 01-.222 0 1.173 1.173 0 01-.333-.09.866.866 0 01.028.128c.009.072.014.151.01.232a1.207 1.207 0 01-.036.247c-.017.067-.05.144-.093.23zm3.258-3.764l.006.035a1.327 1.327 0 01-.013.41.798.798 0 01-.036.13c.026-.01.05-.02.073-.027h.002c.049-.015.1-.026.15-.034a1.322 1.322 0 01.31-.013.953.953 0 01.217.048 1.329 1.329 0 01-.005-.13v-.037c.004-.08.014-.16.035-.237a1.5 1.5 0 01.176-.37 2.08 2.08 0 01-.22.135.738.738 0 01-.14.06c-.08.026-.16.04-.236.047h-.003a1.261 1.261 0 01-.214 0 .761.761 0 01-.102-.017zm7.037 1.65a1.227 1.227 0 01.346-.02l.037.006a1.21 1.21 0 01-.02-.264v-.019l.01-.093-.019.003a.734.734 0 01-.094.014 1.228 1.228 0 01-.169.002l-.032-.002a.619.619 0 01-.063-.009l.006.035a1.266 1.266 0 01-.002.348zm-4.47-3.608c.08-.054.154-.1.223-.135a.74.74 0 01.139-.06 1.1 1.1 0 01.236-.047h.003a.97.97 0 01.465.064 1.184 1.184 0 01.033-.33.973.973 0 01.076-.19 1 1 0 01-.187.086h-.003a1.07 1.07 0 01-.226.045v-.003a1.15 1.15 0 01-.202.002 1.092 1.092 0 01-.343-.105l-.001.063a1.13 1.13 0 01-.035.238 1.5 1.5 0 01-.177.372zm3.035-2.904a1.059 1.059 0 01-.03.175 1.013 1.013 0 01-.076.191l.036-.02a.73.73 0 01.29-.097.846.846 0 01.09-.014.9.9 0 01.405.048.98.98 0 01.032-.213l.009-.031-.032.01a.967.967 0 01-.186.04l-.033.005c-.071.006-.14.005-.2 0a.999.999 0 01-.305-.094zm3.97 3.598a1.215 1.215 0 01-.005.26 1.072 1.072 0 01.262-.018 1.198 1.198 0 01-.005-.249l-.057.007h-.003a1.136 1.136 0 01-.169.001l-.022-.001zm-1.368-5.497l.032-.011h.002a1.035 1.035 0 01.418-.043c.143.013.332.091.546.215a1.193 1.193 0 01.008-.22 1.205 1.205 0 01-.068.011l-.037.004a1.18 1.18 0 01-.166.002l-.031-.002c-.168-.014-.4-.12-.662-.285v.078a1.09 1.09 0 01-.033.22l-.009.03zm-39.057 37.96c.182.085.344.138.478.15l.024.001c.06.004.131.003.213-.004v.003c.064-.006.133-.017.201-.035a1.222 1.222 0 00-.024.2v.023c-.002.076.002.15.011.218.018.138.068.287.143.444a1.488 1.488 0 00-.45-.125 1.382 1.382 0 00-.238.003v-.003a1.206 1.206 0 00-.2.034 1.274 1.274 0 00.012-.44 1.479 1.479 0 00-.17-.47zm-2.538 3.74a1.253 1.253 0 00-.025.2v.023c-.002.075.002.15.011.217.018.133.078.293.17.47a1.477 1.477 0 00-.477-.15 1.41 1.41 0 00-.237 0 .722.722 0 00-.086.012 1.134 1.134 0 00-.155.033.988.988 0 00.088-.4 1.44 1.44 0 00-.011-.237 1.051 1.051 0 00-.06-.225c.127.05.241.082.34.091.066.006.147.006.24-.002v.002a1.19 1.19 0 00.202-.035zm3.625 4.232c.181.086.344.139.478.15l.025.002a1.203 1.203 0 00.712-.16v1.093a1.63 1.63 0 00-.564-.191l-.01-.002-.029-.003a1.325 1.325 0 00-.165-.002 1.22 1.22 0 00-.294.042 1.427 1.427 0 00.017-.46 1.476 1.476 0 00-.17-.469z" fill="#fff"/></svg>