<svg width="112" height="114" fill="none" xmlns="http://www.w3.org/2000/svg"><path fill-rule="evenodd" clip-rule="evenodd" d="M29.009 75.014a11.716 11.716 0 00-3.07 1.489c-3.523 2.467-5.157 6.168-5.767 10.28-4.211 0-8.147-2.546-5.195-7.03 2.282-3.505 5.746-4.778 9.682-5.444 3.621-.626 9.624-1.311 13.206-1.781-4.566 9.34-8.955 18.876-13.757 28.079-2.066 4.072-4.448 7.029-7.124 8.889-2.696 1.861-5.727 2.8-9.112 2.8-3.424 0-5.943-1.644-6.022-5.247-.118-5.013 4.015-10.26 8.699-11.964 1.712-.607 3.522-.627 5.412-.04-.59.549-1.26 1.332-2.027 2.35-1.988 2.663-6.515 9.713-6.613 13.08-.02.666.236.979.748.979 4.389 0 20.979-36.38 20.94-36.44zM41.407 58.92l6.003-.04-5.924 3.995c.02.646.04 1.293.059 1.978 3.168 0 6.534.45 9.663 1.743 15.626 6.48 6.672 18.817-5.747 21.05 4.763 1.076 7.715 4.562 5.491 9.515-4.526 9.987-21.49 12.434-29.58 10.006l.69-.998c13.854 3.505 26.607-9.458 21.412-16.585-.65-.901-1.693-1.234-2.775-1.293l-7.144 14.549-8.148 1.136 15.39-31.35 8.148-1.135-7.656 15.586c6.613-.88 15.35-13.608 8.541-17.055-5.333-2.682-16.669-.861-22.494.862C19.385 62.423 10.253 55.023 0 49.07c12.517-9.066 16.433-12.924 24.285-26.18 0 0 6.613 6.736 18.146 8.714L40.62 21.519 71.754 0l-3.72 31.838c12.478-1.585 19.68-8.948 19.68-8.948C95.588 36.146 99.485 40.004 112 49.07 86.71 63.755 68.31 87.155 57.565 114c1.77-10.182 5.49-19.66 10.47-28.47l-3.996-2.703 5.216.04c.236-1.88.492-4.054.708-6.482.236-2.487.413-5.13.532-7.656l-13.796-5.032 13.953.822c.138-4.64.138-8.126.138-8.126-8.856-3.623-20.566-3.623-29.383 0v2.526zm34.145-4.915s-2.381-2.663-9.643-4.073l1.594-13.57c4.566-.254 13.835-1.8 17.496-3.915 3.562 5.776 8.64 11.513 14.11 15.586-8.993 8.322-17.653 17.486-24.777 27.59 1.28-7.05 1.22-21.618 1.22-21.618zm-32.295-17.74l2.46 13.785c-6.81 1.43-9.092 3.955-9.092 3.955s.138 7.46.275 11.18a41.913 41.913 0 00-6.278 1.293C25.132 59.899 19.09 53.77 12.89 48.033c5.472-4.073 10.55-9.81 14.13-15.586 3.563 2.075 11.77 3.387 16.237 3.818zM62.13 49.383c-4.172-.45-8.777-.411-12.95.098l-4.132-26.16 10.686-6.344 2.204 28.255 2.618-31.486 4.29-2.35-2.716 37.987z" fill="#fff"/></svg>