<svg width="96" height="97" fill="none" xmlns="http://www.w3.org/2000/svg"><path fill-rule="evenodd" clip-rule="evenodd" d="M78.845 96.492c13.401 0 17.293 3.776 17.151-9.263-.097-8.982-.117-17.934-.117-26.921V7.112c-12.294 4.35-31.216 10.569-43.33 16.28-10.798 5.09-15.039 4.643-18.805 10.552-3.257 5.11-7.983 15.686-9.69 21.003 5.538 4.804 39.198 21.694 49.678 27.677 7.028 4.012 11.545 6.35 5.113 13.868zM7.564 44.226l6.743 4.961c2.236-3.044 4.648-8.353 5.21-12.435-4.992 2.323-9.072 2.262-11.953 7.474zM0 78.702c2.517-3.797 10.676-20.266 11.413-24.533C8.523 51.42 3.903 48.248 0 46.32v32.381zM83.368 0H42.422c6.382 12.105-.136 9.278-1.65 20.161 6.758-1.713 14.529-7.158 21.139-10.152C69.238 6.689 78.245 3.578 83.368 0zM0 40.722C4.73 38.33 21.776 30.113 24.732 27.56c6.7-5.79 8.987-18.02 6.71-27.56H0v40.722zm7.798 55.77H70.79c-2.277-5.106-.74-1.85-5.845-5.104L46.069 78.28c-5.86-3.788-14.26-12.804-24.761-17.502-3.639 4.997-14.174 27.097-13.509 35.714z" fill="#fff"/></svg>