<svg width="67" height="103" fill="none" xmlns="http://www.w3.org/2000/svg"><path d="M13.944 31.803a2.17 2.17 0 00.247-3.058 14.818 14.818 0 01-3.523-9.591c0-8.171 6.65-14.816 14.822-14.816 8.172 0 14.821 6.645 14.821 14.816 0 3.517-1.253 6.926-3.528 9.598a2.167 2.167 0 00.245 3.056 2.161 2.161 0 003.057-.245 19.16 19.16 0 004.563-12.41C44.648 8.594 36.054 0 25.49 0 14.926 0 6.33 8.592 6.33 19.154c0 4.54 1.618 8.945 4.556 12.4a2.172 2.172 0 003.058.249zm52.708 29.585c-1.361-8.116-7.084-9.411-9.772-9.565a2.676 2.676 0 01-2.097-1.186c-1.948-2.973-4.558-3.758-6.776-3.758-1.592 0-2.981.405-3.776.698a.873.873 0 01-.303.053.91.91 0 01-.782-.455c-1.979-3.394-4.79-4.269-7.165-4.269-1.383 0-2.617.297-3.452.566a1.57 1.57 0 01-.361.041c-.454 0-.954-.372-.954-.857V25.208c0-3.988-2.972-5.98-5.964-5.98-2.992 0-5.965 1.992-5.965 5.98v30.687c0 1.804-1.378 2.92-2.863 2.92-.901 0-1.77-.412-2.368-1.33l-2.869-4.437c-1.269-2.093-3.1-2.96-4.926-2.962-3.152 0-6.25 2.587-6.259 5.917v.04c.005 1.017.298 2.102.965 3.203l22.59 43.258c.148.282.443.496.763.496H56.04c.452 0 .828-.388.855-.84l.794-12.944a.882.882 0 01.141-.429c7.875-11.923 10.128-19.609 8.82-27.4zM25.433 14.89c4.782 0 8.609 2.93 9.874 7.184.276-.927.425-1.904.425-2.92 0-5.656-4.585-10.24-10.242-10.24-5.657 0-10.243 4.584-10.243 10.24 0 .95.132 1.865.372 2.737 1.322-4.154 5.103-7 9.814-7z" fill="#fff"/></svg>