<svg width="96" height="106" viewBox="0 0 96 106" fill="none" xmlns="http://www.w3.org/2000/svg">
<path fill-rule="evenodd" clip-rule="evenodd" d="M16.0133 85.672C15.998 85.74 15.9892 85.8108 15.9858 85.8812L15.9854 85.8887L15.9851 85.894C15.9817 85.9763 15.9866 86.0578 15.9963 86.1317C16.014 86.2667 16.0717 86.4249 16.1607 86.5984C15.9816 86.5144 15.8211 86.4623 15.6886 86.451C15.6153 86.4448 15.5338 86.4436 15.4513 86.4507C15.387 86.4562 15.318 86.4682 15.2464 86.4876L15.2319 86.4911C15.2484 86.4183 15.2571 86.3444 15.2602 86.2719C15.2637 86.1908 15.2587 86.1089 15.2493 86.0341V86.0312C15.2317 85.898 15.1718 85.7385 15.079 85.5618C15.2603 85.6473 15.4228 85.7006 15.5569 85.712L15.581 85.7137C15.641 85.7175 15.7125 85.7167 15.7938 85.7095L15.794 85.712C15.8638 85.706 15.9381 85.6931 16.0133 85.672ZM31.8425 31.4423C31.8425 31.4423 31.4288 39.788 26.7558 48.1391C27.0351 38.769 25.4421 29.288 19.0696 22.2624C19.0696 22.2624 23.8249 44.5818 18.0985 58.2724C17.1701 60.4921 16.3416 62.4427 15.6052 64.1536C14.2048 65.6223 12.8068 67.101 11.4089 68.5894C10.8753 67.4703 10.1164 66.4495 9.06281 65.5746C8.53329 71.4129 1.06414 78.8655 0.949192 86.7083C0.88313 91.1491 7.29087 98.425 12.5612 98.3466C13.8808 98.327 16.815 97.3377 19.7492 95.9667V95.2204V93.8813V90.9795V90.1783V89.911V89.6403C19.3996 89.7006 19.0539 89.7564 18.7119 89.8074C17.9466 88.7839 16.2135 87.2339 15.6284 87.1837C15.5616 87.1779 15.4832 87.1809 15.4151 87.2022C14.9487 87.3489 13.4005 88.973 13.2757 89.4468C13.2573 89.5159 13.2579 89.5945 13.2667 89.6612C13.2861 89.809 13.4053 90.0265 13.589 90.2802C13.3058 90.2902 13.0271 90.2972 12.7529 90.3018C12.6363 90.0945 12.5613 89.9082 12.5414 89.7561C12.5317 89.6826 12.5268 89.601 12.5302 89.5184L12.5303 89.5155C12.5333 89.4431 12.5421 89.3687 12.5585 89.2963C12.5161 89.3079 12.4722 89.3169 12.4276 89.3235C12.3988 89.3297 12.3692 89.3339 12.3391 89.3366C12.2667 89.3428 12.1942 89.3425 12.1274 89.3381L12.1021 89.3364C11.8799 89.3173 11.5798 89.1841 11.2439 88.9773C11.1291 88.6681 11.0547 88.3175 11.0146 87.9292C11.4924 88.3122 11.9233 88.5831 12.1623 88.6037C12.229 88.6093 12.3073 88.6062 12.3753 88.585C12.8419 88.4385 14.3904 86.8141 14.5149 86.3403C14.5331 86.2711 14.5325 86.1927 14.524 86.1261C14.4388 85.4801 12.4587 83.5103 11.4521 82.9631C11.4933 82.7199 11.5359 82.4736 11.579 82.2242L11.6108 82.239L11.5851 82.1889C11.7103 81.4673 11.8415 80.7206 11.9646 79.9596C12.5864 79.4015 13.3652 78.5121 13.4521 78.1819C13.4703 78.1126 13.4698 78.0342 13.4611 77.9675C13.4217 77.6694 12.9787 77.089 12.4139 76.4968C12.4418 76.1747 12.4647 75.8525 12.4816 75.5311C13.2592 76.2877 14.1445 76.9732 14.5304 77.0063C14.5972 77.012 14.6755 77.0089 14.7436 76.9876C15.2101 76.8412 16.7585 75.2167 16.8831 74.7431C16.9013 74.6738 16.9007 74.5953 16.8921 74.5287C16.7942 73.7854 14.1862 71.2883 13.441 71.2243C13.374 71.2186 13.2958 71.2215 13.2278 71.2431C13.0502 71.2989 12.7158 71.569 12.3627 71.9083C12.3231 71.6216 12.2752 71.3375 12.2179 71.057C12.399 70.9049 12.5728 70.7745 12.7257 70.6806L12.7285 70.6789L12.7313 70.6773L12.7315 70.6771L12.7341 70.6755L12.7369 70.6737L12.7397 70.6721L12.7425 70.6703L12.7453 70.6687L12.7481 70.6671L12.7507 70.6655L12.7508 70.6653L12.7536 70.6637L12.7564 70.6621L12.7592 70.6605L12.7619 70.6589L12.7646 70.6572L12.7674 70.6556L12.7696 70.6543L12.7702 70.654L12.7729 70.6524L12.7757 70.6509L12.7783 70.6493L12.7811 70.6477L12.7837 70.6462L12.7865 70.6446L12.7883 70.6436L12.7892 70.6431L12.792 70.6415L12.7946 70.64L12.7972 70.6386L12.7999 70.6369L12.8027 70.6355L12.8053 70.634L12.8068 70.6333L12.808 70.6325L12.8106 70.6311L12.8132 70.6296L12.8159 70.6281L12.8185 70.6268L12.8212 70.6253L12.8238 70.6239L12.825 70.6233L12.8265 70.6225L12.8291 70.6211L12.8317 70.6196L12.8344 70.6183L12.8369 70.6169L12.8395 70.6155L12.8422 70.6141L12.843 70.6137L12.8447 70.6128L12.8473 70.6115L12.8499 70.6102L12.8524 70.6088L12.8551 70.6075L12.8576 70.6062L12.8601 70.6049L12.8607 70.6046L12.8627 70.6035L12.8652 70.6024L12.8677 70.601L12.8703 70.5997L12.8728 70.5985L12.8753 70.5972L12.8778 70.596L12.8781 70.5959L12.8803 70.5949L12.8828 70.5935L12.8853 70.5924L12.8878 70.5912L12.8903 70.59L12.8928 70.5888L12.8953 70.5877C12.9308 70.5697 12.968 70.5543 13.007 70.5419C13.0928 70.5148 13.1801 70.4986 13.2638 70.4914L13.2639 70.4939C13.3569 70.4858 13.4367 70.486 13.5012 70.4916L13.5075 70.4922L13.5138 70.4928L13.5203 70.4935L13.5266 70.4942L13.533 70.495L13.5396 70.4958L13.5461 70.4969L13.5527 70.4977L13.5593 70.4989L13.5661 70.5L13.5727 70.5011H13.5728L13.5794 70.5023H13.5796L13.5863 70.5036L13.5931 70.505L13.6 70.5064L13.6069 70.5079L13.6138 70.5094L13.6208 70.511L13.6277 70.5126H13.6279L13.6348 70.5142H13.6349L13.642 70.516L13.649 70.5178L13.6562 70.5197L13.6634 70.5216L13.6706 70.5235H13.6707L13.6779 70.5256L13.6851 70.5276H13.6853L13.6925 70.5298H13.6926L13.6999 70.532L13.7073 70.5342H13.7074L13.7148 70.5365L13.7223 70.539L13.7297 70.5413H13.7299L13.7374 70.5438L13.7449 70.5463H13.745L13.7525 70.5488H13.7526L13.7601 70.5515H13.7603L13.7679 70.5541L13.7755 70.5569H13.7757L13.7833 70.5597H13.7835L13.7911 70.5625H13.7913L13.7989 70.5654H13.799L13.8068 70.5684H13.807L13.8146 70.5713H13.8147L13.8225 70.5744H13.8227L13.8306 70.5775L13.8385 70.5806H13.8387L13.8466 70.5838L13.8545 70.5871H13.8547L13.8626 70.5903H13.8627L13.8708 70.5937L13.8789 70.5971H13.879L13.8871 70.6006H13.8873L13.8952 70.6041H13.8953L13.9036 70.6077L13.9118 70.6112H13.9119L13.92 70.6149H13.9201L13.9284 70.6186H13.9285L13.9367 70.6224H13.9369L13.9451 70.6261H13.9453L13.9535 70.63H13.9536L13.962 70.6339H13.9621L13.9704 70.6378H13.9705L13.9789 70.6418H13.979L13.9746 70.6336L13.9704 70.6253H13.9702L13.9661 70.6171L13.962 70.6088H13.9618L13.9579 70.6006H13.9577L13.9538 70.5925H13.9536L13.9497 70.5844L13.9457 70.5763L13.9419 70.5682H13.9417L13.9379 70.5601H13.9378L13.9341 70.5522H13.9339L13.9303 70.5443L13.9266 70.5363H13.9265L13.9229 70.5284H13.9228L13.9193 70.5204L13.9157 70.5126H13.9156L13.9122 70.5047H13.9121L13.9087 70.4969L13.9053 70.4891H13.9052L13.9019 70.4814H13.9018L13.8986 70.4736L13.8953 70.466L13.8921 70.4583L13.8889 70.4507L13.8858 70.443L13.8829 70.4355H13.8827L13.8798 70.428L13.8768 70.4205L13.8739 70.413L13.8711 70.4055L13.8683 70.3981L13.8657 70.3908L13.863 70.3834H13.8629L13.8604 70.3761L13.8578 70.3687L13.8553 70.3615L13.8529 70.3543L13.8504 70.3471L13.8482 70.3399L13.8459 70.3328L13.8437 70.3258L13.8415 70.3187L13.8394 70.3116L13.8373 70.3046L13.8354 70.2977H13.8353L13.8334 70.2907L13.8316 70.2838L13.8297 70.277L13.828 70.2701L13.8263 70.2634L13.8247 70.2567L13.8231 70.25L13.8216 70.2434L13.8202 70.2366L13.8187 70.2301L13.8174 70.2235L13.8161 70.217L13.8149 70.2104L13.8137 70.2041L13.8127 70.1976L13.8117 70.1913L13.8106 70.1848L13.8098 70.1786L13.8089 70.1723C13.7999 70.1048 13.7954 70.0303 13.7971 69.955V69.9509L13.7973 69.9472L13.7977 69.9319C13.8014 69.8445 13.813 69.7563 13.835 69.6736C13.9317 69.3145 14.4244 68.6683 14.9544 68.1122C15.4334 67.6095 15.9869 67.1344 16.3501 66.9633C16.3856 66.9453 16.4227 66.9299 16.4618 66.9175C16.5475 66.8904 16.6349 66.8742 16.7187 66.867L16.7188 66.8695C16.8118 66.8614 16.8916 66.8616 16.9561 66.8672C17.0898 66.8787 17.2448 66.9254 17.4144 67.0009C17.334 66.837 17.2815 66.6841 17.2636 66.5479C17.2547 66.4805 17.2501 66.4059 17.2519 66.3304V66.3263L17.252 66.3232L17.2525 66.3073C17.256 66.2224 17.2676 66.1355 17.2898 66.0519C17.3676 65.7557 17.687 65.298 18.079 64.8501C18.4513 64.4246 18.9065 63.973 19.2644 63.6849C19.3938 63.5708 19.5635 63.5016 19.7492 63.5016V59.8462V55.7496V53.3219H22.1715H26.1938H29.4373C29.4374 53.1009 29.5371 52.8824 29.7263 52.7385C29.8212 52.6664 29.9084 52.6058 29.9834 52.5606C30.063 52.5128 30.1402 52.4735 30.214 52.4445C30.2358 52.4352 30.2581 52.4268 30.2811 52.4196C30.3669 52.3925 30.4542 52.3764 30.5379 52.3692L30.538 52.3717C30.631 52.3636 30.7108 52.3637 30.7753 52.3693C30.915 52.3814 31.0651 52.423 31.2213 52.4897L31.2229 52.4904C31.1493 52.335 31.1009 52.187 31.083 52.05C31.074 51.9826 31.0695 51.908 31.0712 51.8326V51.8284L31.0714 51.8253L31.0718 51.8094C31.0753 51.7246 31.0869 51.6376 31.1091 51.554C31.2035 51.1953 31.6972 50.5473 32.2285 49.99L32.2508 49.9666L32.251 49.9664L32.2733 49.9432L32.2736 49.9429L32.2959 49.9199L32.2963 49.9195L32.3185 49.8967L32.3191 49.8961L32.3412 49.8736L32.342 49.8727L32.364 49.8505L32.365 49.8495L32.3869 49.8274L32.3879 49.8264L32.4099 49.8044L32.4111 49.8033L32.4328 49.7816L32.4343 49.7803L32.4559 49.7588L32.4575 49.7573L32.4791 49.7362L32.4807 49.7345L32.5023 49.7136L32.504 49.7119L32.5253 49.6913L32.5274 49.6894L32.5487 49.6689L32.5507 49.6669L32.5719 49.6467L32.5742 49.6445L32.5951 49.6246L32.5976 49.6224L32.6184 49.6027L32.621 49.6004L32.6416 49.5809L32.6444 49.5784L32.6649 49.5593L32.6679 49.5567L32.6883 49.538L32.6912 49.5352L32.7115 49.5166L32.7147 49.5137L32.7347 49.4954L32.7381 49.4925L32.7579 49.4746L32.7614 49.4715L32.7811 49.4538L32.7847 49.4506L32.8043 49.4332L32.8081 49.4298L32.8275 49.4129L32.8314 49.4094L32.8505 49.3926L32.8546 49.3891L32.8736 49.3727L32.8778 49.3691L32.8965 49.3529L32.9009 49.3492L32.9194 49.3335L32.9239 49.3296L32.9421 49.314L32.9468 49.3102L32.9649 49.295L32.9697 49.2911L32.9876 49.2762L32.9925 49.2721L33.0101 49.2575L33.0152 49.2534L33.0327 49.2391L33.0378 49.235L33.055 49.2212L33.0603 49.2169L33.0773 49.2032L33.0828 49.199L33.0995 49.1857L33.1051 49.1815L33.1215 49.1685L33.1272 49.1641L33.1434 49.1514L33.1493 49.147L33.1653 49.1348L33.1711 49.1303L33.1868 49.1183L33.1929 49.1139L33.2084 49.1021L33.2144 49.0977L33.236 49.082L33.251 49.071L33.2573 49.0664L33.272 49.0558L33.2784 49.0512L33.2928 49.0409L33.2994 49.0364L33.3137 49.0264L33.3201 49.0218L33.3341 49.0123L33.3408 49.0077L33.3545 48.9984L33.3612 48.9939L33.3746 48.9849L33.3815 48.9805L33.3947 48.9718L33.4015 48.9674L33.4144 48.959L33.4213 48.9546L33.4341 48.9466L33.441 48.9422L33.4533 48.9346L33.4603 48.9303L33.4725 48.9229L33.4796 48.9187L33.4915 48.9116L33.4985 48.9075L33.5101 48.9007L33.5171 48.8968L33.5356 48.8865L33.5467 48.8803L33.5538 48.8764L33.5647 48.8706L33.5719 48.8669L33.5823 48.8614L33.5895 48.8578L33.5998 48.8526L33.607 48.8491L33.617 48.8442L33.6242 48.8408C33.6597 48.8229 33.6968 48.8074 33.7359 48.7951C33.7896 48.7782 33.8476 48.7658 33.9076 48.7571C33.9354 48.7514 33.9639 48.7471 33.9928 48.7446C34.0753 48.7375 34.1566 48.7386 34.23 48.7449C34.4251 48.7615 34.6804 48.8663 34.9671 49.0317C34.8823 48.8667 34.8277 48.7178 34.8112 48.5925C34.8017 48.5201 34.797 48.4397 34.8004 48.3596C34.8037 48.2742 34.8153 48.187 34.8371 48.1049C34.929 47.7556 35.4064 47.1282 35.9196 46.5897C36.4343 46.0495 37.0391 45.5418 37.3831 45.4338C37.4324 45.4183 37.4856 45.4067 37.5403 45.3982C37.5706 45.3915 37.6017 45.3867 37.6334 45.384C37.714 45.3771 37.7939 45.3783 37.8658 45.3843C38.0324 45.3986 38.2432 45.4781 38.4799 45.605C38.4184 45.4741 38.3786 45.3549 38.3651 45.2519C38.3558 45.1801 38.351 45.1005 38.3547 45.0206C38.3585 44.9345 38.3698 44.8486 38.3908 44.7703C38.4824 44.4301 38.9412 43.8267 39.434 43.3096C39.8716 42.8504 40.3781 42.4153 40.7209 42.2472C40.7601 42.2264 40.8015 42.2087 40.8452 42.1949C40.895 42.1791 40.9497 42.1674 41.0073 42.1588C41.0366 42.1528 41.0667 42.1482 41.0974 42.1457C41.1434 42.1417 41.1943 42.1415 41.247 42.1437C41.272 42.1432 41.2969 42.144 41.3222 42.146C41.4562 42.1575 41.6195 42.2121 41.8016 42.3001L41.7981 42.2771C41.7886 42.2077 41.784 42.1285 41.7876 42.0461C41.7912 41.9622 41.8025 41.8782 41.8232 41.8005C41.9117 41.4721 42.3497 40.8945 42.8199 40.4013C43.2927 39.9051 43.8516 39.4375 44.1748 39.3362C44.221 39.3216 44.2711 39.3104 44.3229 39.3022C44.3533 39.2956 44.3844 39.2908 44.4161 39.288C44.4613 39.2842 44.5117 39.2838 44.5636 39.286C44.5882 39.2855 44.6131 39.2863 44.6381 39.2883C44.706 39.2942 44.7816 39.3114 44.8634 39.3387C44.86 39.2991 44.8581 39.258 44.8584 39.2168V39.2104L44.8592 39.179C44.8624 39.1018 44.8728 39.0219 44.8934 38.9443C44.975 38.6339 45.3832 38.0933 45.8203 37.6348C46.1968 37.2396 46.6348 36.8633 46.9445 36.7039C46.9877 36.6796 47.0341 36.6593 47.0832 36.6437C47.164 36.6183 47.2436 36.604 47.3196 36.5974L47.3199 36.6002C47.3873 36.5941 47.4454 36.5931 47.4947 36.5953L47.5339 36.5975C47.6414 36.6068 47.7701 36.6473 47.9136 36.7123L47.9145 36.683C47.9177 36.6055 47.9283 36.5268 47.9476 36.4533C48.0244 36.1622 48.3982 35.6645 48.7975 35.2456C49.1981 34.825 49.6786 34.4267 49.9649 34.3369C50.0072 34.3237 50.0519 34.3135 50.098 34.306C50.129 34.2993 50.1607 34.2946 50.193 34.2919C50.2632 34.286 50.3328 34.2868 50.3952 34.2921C50.5045 34.3015 50.6408 34.3484 50.7949 34.4245L50.8026 34.3768C50.8064 34.3531 50.8114 34.3291 50.8175 34.3054C50.8905 34.0287 51.239 33.5631 51.6101 33.1737C51.9829 32.7827 52.4325 32.4114 52.7047 32.3259C52.7813 32.3017 52.8553 32.2881 52.924 32.2822H52.927C52.9844 32.2772 53.0409 32.2773 53.0934 32.2806L53.1218 32.2823C53.3115 32.2987 53.5913 32.4387 53.9075 32.6518V32.6465L53.9076 32.6347L53.9079 32.6181L53.9082 32.6087C53.9104 32.5584 53.9161 32.506 53.9264 32.4527C53.9301 32.4311 53.9348 32.4096 53.9404 32.388C54.0133 32.1114 54.3617 31.6457 54.7328 31.2562C55.1056 30.8654 55.5551 30.4937 55.8274 30.4083C55.9049 30.384 55.979 30.3704 56.047 30.3646C56.1044 30.3597 56.1614 30.3597 56.2139 30.3628L56.2446 30.3647C56.5061 30.3871 56.9256 30.6329 57.3719 30.9759C57.4879 30.7134 57.7683 30.3488 58.0635 30.0391C58.4076 29.678 58.8262 29.3342 59.0837 29.2532C59.1226 29.2412 59.1634 29.2316 59.2051 29.2246C59.2361 29.2178 59.2681 29.2129 59.3007 29.2103C59.3343 29.2075 59.3717 29.2069 59.4113 29.2081C59.4365 29.2075 59.4618 29.2082 59.4875 29.2104C59.8794 29.2441 60.547 29.7127 61.0946 30.2373L61.1557 30.2964C61.2733 30.0721 61.4907 29.7935 61.7174 29.5558C62.0146 29.2438 62.3822 28.9443 62.6168 28.8704C62.6902 28.8476 62.7582 28.8352 62.8205 28.8298C62.8344 28.8286 62.8482 28.8277 62.862 28.8274C62.9103 28.8254 62.957 28.8264 62.9994 28.8299C63.3388 28.8591 63.8882 29.2309 64.348 29.6587C64.4569 29.4738 64.6238 29.2631 64.7962 29.0824C65.0551 28.8107 65.3804 28.5483 65.5955 28.4806H65.5983C65.6686 28.4589 65.7344 28.4466 65.7935 28.4416C65.8416 28.4377 65.8995 28.439 65.96 28.4441L65.9602 28.4418C66.283 28.4693 66.7964 28.8198 67.2045 29.2107C67.6125 29.6014 67.9852 30.0993 68.0278 30.4224C68.0347 30.4752 68.0385 30.5342 68.0357 30.595C68.0328 30.6594 68.0232 30.7255 68.0071 30.7883V30.7913C67.988 30.8635 67.9483 30.949 67.8943 31.0405C67.983 30.9819 68.0658 30.9382 68.1361 30.916H68.1418C68.2122 30.8942 68.2779 30.882 68.3371 30.877C68.3861 30.8729 68.4456 30.8744 68.5065 30.8797L68.5066 30.8772C68.8276 30.9048 69.3399 31.2556 69.7482 31.6464C70.1562 32.0371 70.529 32.535 70.5713 32.8579C70.5782 32.9107 70.582 32.9697 70.5792 33.0305C70.5763 33.0948 70.5668 33.1609 70.5506 33.2237V33.2266C70.4931 33.4448 70.2479 33.7811 69.9904 34.0512C69.8166 34.2335 69.6137 34.4115 69.4348 34.5294L69.4954 34.5866C69.9654 35.0366 70.3935 35.6008 70.4421 35.9548C70.4499 36.0103 70.4533 36.072 70.4509 36.1343L70.4506 36.1401C70.4482 36.2038 70.4393 36.2718 70.4211 36.3415L70.4204 36.3443C70.4156 36.3653 70.4084 36.3874 70.3997 36.4104L70.3979 36.4151C70.3885 36.4405 70.3777 36.4651 70.3658 36.4888C70.2548 36.7199 70.0236 37.02 69.7819 37.2733C69.554 37.5126 69.2846 37.7443 69.0655 37.8727C69.1128 37.9157 69.1595 37.9591 69.2053 38.003C69.7527 38.5274 70.2503 39.1748 70.3018 39.566C70.3094 39.6245 70.3131 39.6896 70.3107 39.7545L70.3104 39.7602C70.3077 39.831 70.2978 39.9043 70.2793 39.9744C70.2105 40.2363 69.8881 40.6694 69.5454 41.0287C69.249 41.3397 68.8976 41.638 68.641 41.7665C69.0021 42.1969 69.2652 42.6049 69.2995 42.8657C69.3018 42.8821 69.3031 42.8988 69.3042 42.9151C69.3086 42.9632 69.3107 43.0137 69.3088 43.0637L69.3086 43.0666C69.3057 43.1362 69.2959 43.2097 69.2766 43.2844L69.2759 43.2872C69.2037 43.5638 68.8555 44.0296 68.4842 44.4191C68.1115 44.8099 67.6621 45.1816 67.3896 45.2671C67.3704 45.2731 67.3512 45.2782 67.3318 45.2825C67.2751 45.2969 67.2209 45.3059 67.1698 45.3105L67.1295 45.3133C67.3547 45.6187 67.506 45.8911 67.5308 46.0797C67.5389 46.1409 67.5427 46.209 67.5401 46.2774C67.5374 46.3466 67.5272 46.4205 67.5079 46.4955L67.5065 46.5009L67.5079 46.5014C67.435 46.7778 67.0865 47.2438 66.7153 47.6333C66.3426 48.0241 65.8934 48.3956 65.6209 48.4811C65.581 48.4936 65.5418 48.5035 65.5038 48.5107C65.5854 48.6602 65.6378 48.7932 65.652 48.9015C65.6604 48.9656 65.6645 49.0361 65.6616 49.1067C65.6583 49.1834 65.6482 49.2615 65.6285 49.3362C65.5521 49.6271 65.1781 50.1247 64.7788 50.5436C64.3782 50.964 63.8979 51.3624 63.6113 51.4525C63.5423 51.4741 63.4662 51.4877 63.3889 51.4947L63.3832 51.4975L63.3547 51.4996C63.4246 51.6377 63.4699 51.7627 63.4843 51.8686C63.4936 51.935 63.498 52.0094 63.4949 52.0858L63.4946 52.0924L63.4943 52.0959L63.494 52.1015C63.49 52.1768 63.4795 52.2522 63.4607 52.3237C63.4056 52.5326 63.2412 52.8008 63.0239 53.0745C62.9609 53.154 62.8915 53.2371 62.8177 53.3219H64.2035H64.3598H64.6771C81.3252 33.817 89.4754 13.622 89.4754 13.622L79.3937 23.3762C83.3911 14.6382 89.8932 7.34031 96 0C96 0 84.2728 5.74359 63.4746 21.0251C52.7879 28.8772 43.1982 37.0782 34.1154 45.6446C34.6596 40.7729 34.1681 35.9048 31.8425 31.4423ZM42.1327 91.7743C42.1327 94.0714 40.6579 95.2204 37.7089 95.2204H22.1715V55.7496H37.7089C40.658 55.7496 42.1327 56.9165 42.1327 59.2504V67.3461C42.1327 68.6589 41.3954 69.4064 39.9208 69.5888C41.3954 69.8075 42.1327 70.5735 42.1327 71.8861V91.7743ZM33.231 73.0896H31.0731V88.3281H33.231V73.0896ZM33.231 62.6966H31.0731V66.1427H33.231V62.6966ZM64.3598 91.7743C64.3598 94.0714 62.885 95.2204 59.936 95.2204H48.8224C45.8734 95.2204 44.3986 94.0717 44.3986 91.7743V55.7496H53.3003V88.3281H55.4582V55.7496H64.3598V91.7743ZM72.2365 83.9956C68.4959 83.9956 66.6258 82.1175 66.6258 78.3614V55.7496H75.5275V77.1034H77.6853V55.7496H86.587V78.3614C86.587 82.1174 84.7707 83.9956 81.138 83.9956V95.2204H72.2365V83.9956ZM8.52873 65.5335C6.76928 64.0962 -0.2022 70.0128 0.00450179 72.6553C1.04197 72.3322 4.87138 72.1096 5.07647 73.1846C6.15857 71.2649 8.2755 67.6655 8.52873 65.5335ZM28.5907 101.874C28.5766 101.814 28.554 101.649 28.5243 101.379C28.4966 101.154 28.472 100.966 28.453 100.819C28.4214 100.995 28.3779 101.172 28.3222 101.346C28.2662 101.523 28.1949 101.701 28.1093 101.884L26.153 106L24.1965 101.8C24.1144 101.627 24.0431 101.461 23.9838 101.299C23.9246 101.137 23.8722 100.977 23.8286 100.819C23.8251 100.981 23.8129 101.15 23.7903 101.328C23.7675 101.506 23.7345 101.692 23.6908 101.884L22.8888 105.687H21.7692L23.5373 97.6395L25.745 102.513C25.778 102.588 25.8303 102.718 25.9002 102.896C25.9699 103.076 26.0534 103.298 26.153 103.561C26.2245 103.339 26.3378 103.058 26.4914 102.718C26.5313 102.626 26.5627 102.556 26.5819 102.507L28.7388 97.6395L30.5471 105.687H29.4172L28.5907 101.874ZM38.9097 105.687V97.9634H43.0841V99.0328H40.1234V100.966H43.0841V102.068H40.1234V104.563H43.0841V105.687H38.9097ZM51.8687 105.687V97.9634H53.506C54.5731 97.9634 55.323 98.0192 55.759 98.1291C56.1931 98.2406 56.5733 98.4262 56.901 98.6853C57.3335 99.0274 57.6613 99.465 57.8844 99.9997C58.1077 100.534 58.2193 101.145 58.2193 101.83C58.2193 102.516 58.1077 103.123 57.8844 103.652C57.6613 104.182 57.3335 104.619 56.901 104.965C56.5733 105.224 56.2019 105.41 55.7834 105.521C55.3666 105.631 54.7162 105.687 53.8339 105.687H53.506H51.8687ZM53.0823 104.553H54.1058C54.6673 104.553 55.0893 104.515 55.3701 104.437C55.6525 104.36 55.8965 104.228 56.1041 104.047C56.3867 103.796 56.5993 103.487 56.7405 103.114C56.8818 102.743 56.9534 102.311 56.9534 101.82C56.9534 101.326 56.8818 100.896 56.7405 100.525C56.5993 100.153 56.3867 99.8429 56.1041 99.5927C55.8932 99.4108 55.6404 99.2794 55.3457 99.202C55.0509 99.1246 54.5889 99.0868 53.9612 99.0868H53.5217H53.0823V104.553ZM67.0249 105.687V97.9634H68.2386V105.687H67.0249ZM82.3204 105.687L81.4729 103.699H78.5088L77.6403 105.687H76.3639L79.9856 97.6609L83.6038 105.687H82.3204ZM78.9586 102.651H81.0441L80.2769 100.891C80.2333 100.779 80.1862 100.65 80.139 100.504C80.0921 100.358 80.0432 100.196 79.9962 100.016C79.956 100.185 79.9124 100.342 79.8654 100.487C79.82 100.633 79.7729 100.768 79.7258 100.891L78.9586 102.651ZM19.7492 89.1753C18.7299 88.596 16.8053 86.6733 16.7216 86.0368C16.7128 85.97 16.7122 85.8915 16.7304 85.8224C16.8552 85.3486 18.4034 83.7245 18.87 83.5778C18.9379 83.5565 19.0163 83.5534 19.0831 83.5591C19.2379 83.5724 19.473 83.6908 19.7492 83.8764V89.1753ZM14.5432 69.8633C14.5248 69.9322 14.5254 70.0109 14.5342 70.0774C14.632 70.8207 17.2399 73.3178 17.9853 73.3819C18.0521 73.3875 18.1304 73.3844 18.1983 73.3631C18.4937 73.2704 19.2223 72.5856 19.7492 71.9751V69.9341C18.9096 68.9315 17.4279 67.6455 16.8959 67.5999C16.8289 67.5942 16.7505 67.5971 16.6826 67.6187C16.2162 67.765 14.6678 69.3895 14.5432 69.8633ZM17.998 66.2388C17.9796 66.3078 17.9802 66.3863 17.989 66.453C18.0438 66.8695 18.8871 67.8371 19.7492 68.6184V64.2373C19.11 64.7427 18.0978 65.8594 17.998 66.2388ZM31.2298 53.3219C31.0193 53.1928 30.8407 53.1128 30.7151 53.102C30.6481 53.0963 30.5699 53.0992 30.5019 53.1209C30.4197 53.1466 30.3037 53.2186 30.1679 53.3219H31.2298ZM12.1749 81.4605C12.1566 81.5296 12.1572 81.6081 12.166 81.6748C12.2637 82.418 14.8716 84.9151 15.6171 84.9793C15.6839 84.9849 15.7623 84.9818 15.8302 84.9605C16.2966 84.8141 17.8451 83.1897 17.9698 82.7159C17.988 82.6468 17.9874 82.5682 17.9787 82.5017C17.8808 81.7582 15.2728 79.2612 14.5276 79.1973C14.4607 79.1916 14.3824 79.1945 14.3145 79.216C13.8481 79.3624 12.2996 80.9868 12.1749 81.4605ZM15.6298 77.8362C15.6115 77.905 15.6119 77.9837 15.6207 78.0502C15.7185 78.7936 18.3265 81.2906 19.072 81.3548C19.1386 81.3603 19.217 81.3574 19.285 81.3361C19.3925 81.3024 19.5575 81.19 19.7492 81.0315V76.781C19.0494 76.137 18.3222 75.6019 17.9824 75.5728C17.9156 75.567 17.8372 75.57 17.7692 75.5916C17.3028 75.738 15.7543 77.3624 15.6298 77.8362ZM19.0846 74.2118C19.0663 74.2806 19.0668 74.3592 19.0756 74.4258C19.1056 74.654 19.3726 75.0475 19.7492 75.4852V73.2682C19.4077 73.6544 19.1341 74.0237 19.0846 74.2118ZM68.9729 33.9522C68.9453 33.9607 68.9134 33.962 68.8864 33.9594C68.5834 33.9335 67.5236 32.9187 67.484 32.6166C67.4803 32.5897 67.48 32.5578 67.4872 32.5297C67.5382 32.3371 68.1672 31.6772 68.3569 31.6173C68.3845 31.6087 68.4165 31.6076 68.4435 31.6099C68.7462 31.636 69.8062 32.6508 69.846 32.9528C69.8496 32.9799 69.8498 33.0118 69.8424 33.0398C69.7916 33.2324 69.1624 33.8923 68.9729 33.9522ZM63.5775 32.3865C63.5442 32.3968 63.5057 32.3984 63.4731 32.3955C63.1079 32.3641 61.8301 31.1407 61.7822 30.7765C61.7778 30.7439 61.7776 30.7055 61.7864 30.6716C61.8477 30.4395 62.6061 29.6437 62.8347 29.5716C62.8682 29.5613 62.9065 29.5599 62.9392 29.5627C63.3043 29.5942 64.5821 30.8176 64.6301 31.1817C64.6344 31.2143 64.6347 31.2528 64.6259 31.2867C64.5645 31.5188 63.8061 32.3144 63.5775 32.3865ZM66.1211 34.822C66.0877 34.8323 66.0493 34.8338 66.0167 34.831C65.6514 34.7995 64.3736 33.5761 64.3258 33.2119C64.3214 33.1794 64.3211 33.1409 64.33 33.107C64.3913 32.8748 65.1497 32.0793 65.3782 32.0072C65.4117 31.9969 65.45 31.9953 65.4828 31.9981C65.8479 32.0295 67.1257 33.253 67.1737 33.6171C67.1779 33.6498 67.1782 33.6882 67.1694 33.7222C67.108 33.9542 66.3496 34.7499 66.1211 34.822ZM68.6646 37.2574C68.6313 37.2677 68.5928 37.2693 68.5602 37.2664C68.195 37.2351 66.9172 36.0116 66.8693 35.6473C66.8649 35.6148 66.8646 35.5763 66.8736 35.5424C66.9348 35.3102 67.6934 34.5147 67.9219 34.4427C67.9553 34.4323 67.9937 34.4308 68.0265 34.4336C68.3914 34.4649 69.6692 35.6885 69.7172 36.0525C69.7215 36.0852 69.7218 36.1237 69.713 36.1576C69.6516 36.3898 68.8932 37.1853 68.6646 37.2574ZM68.3074 41.1134C68.2672 41.1261 68.221 41.1278 68.1815 41.1243C67.7412 41.0866 66.2006 39.6116 66.1431 39.1726C66.1378 39.1333 66.1375 39.0868 66.1482 39.0459C66.2221 38.7662 67.1364 37.8068 67.4119 37.7202C67.4521 37.7075 67.4985 37.7058 67.538 37.709C67.9781 37.747 69.5186 39.222 69.5764 39.6609C69.5816 39.7003 69.582 39.7468 69.5711 39.7876C69.4974 40.0674 68.583 41.0268 68.3074 41.1134ZM67.1718 44.5658C67.1271 44.5796 67.0762 44.5816 67.0326 44.5777C66.5459 44.5359 64.4714 42.5496 64.4076 42.0644C64.4018 42.0208 64.4014 41.9697 64.4131 41.9244C64.4948 41.6152 65.5054 40.5549 65.8098 40.4591C65.8545 40.4453 65.9054 40.4434 65.949 40.4472C66.4357 40.4888 68.5103 42.4752 68.5742 42.9606C68.5798 43.0041 68.5802 43.0552 68.5685 43.1005C68.487 43.4098 67.4764 44.47 67.1718 44.5658ZM65.403 47.7798C65.3584 47.7938 65.3075 47.7956 65.2639 47.7919C64.7772 47.7501 62.5787 45.6451 62.5148 45.1596C62.5091 45.1161 62.5086 45.065 62.5204 45.0197C62.602 44.7104 63.6126 43.6502 63.9172 43.5545C63.9617 43.5406 64.0127 43.5387 64.0563 43.5423C64.5431 43.5841 66.7416 45.6893 66.8055 46.1746C66.8112 46.2181 66.8115 46.2692 66.7998 46.3145C66.7181 46.6238 65.7077 47.6841 65.403 47.7798ZM63.3934 50.7513C63.3448 50.7667 63.2889 50.7686 63.2412 50.7646C62.7095 50.719 60.476 48.5804 60.4059 48.05C60.3999 48.0025 60.3995 47.9464 60.4124 47.897C60.5015 47.5588 61.6062 46.3997 61.9392 46.2951C61.9879 46.2798 62.0438 46.2777 62.0916 46.2817C62.6234 46.3275 64.8568 48.4661 64.9267 48.9964C64.9328 49.0439 64.9334 49.1001 64.9204 49.1494C64.8312 49.4876 63.7264 50.6466 63.3934 50.7513ZM59.8751 53.3219C59.0449 52.6386 58.0615 51.5814 58.0099 51.1894C58.003 51.1363 58.0025 51.0739 58.017 51.0189C58.1162 50.6418 59.3481 49.3493 59.7195 49.2327C59.7737 49.2157 59.8359 49.2134 59.8892 49.2179C60.4821 49.2689 62.6816 51.3748 62.7594 51.9663C62.7664 52.0193 62.767 52.0818 62.7525 52.1368C62.6942 52.3578 62.247 52.893 61.8121 53.3219H59.8751ZM55.6863 53.3219C56.1435 52.795 56.7675 52.21 57.0219 52.1299C57.0811 52.1114 57.1492 52.1089 57.2074 52.1137C57.5303 52.1414 58.255 52.694 58.9118 53.3219H55.7226H55.6863ZM65.3455 38.2772C65.3051 38.2899 65.2589 38.2918 65.2195 38.2883C64.7793 38.2506 63.6108 37.1318 63.5532 36.6927C63.548 36.6534 63.5476 36.6069 63.5583 36.5662C63.6321 36.2863 64.5466 35.327 64.8221 35.2403C64.8624 35.2277 64.9086 35.2259 64.9481 35.2293C65.3882 35.2671 66.5566 36.3859 66.6145 36.8247C66.6196 36.8643 66.6199 36.9106 66.6092 36.9515C66.5353 37.2314 65.6209 38.1906 65.3455 38.2772ZM63.5788 41.1255C63.5342 41.1395 63.4834 41.1414 63.4398 41.1377C62.953 41.0959 61.3747 39.5847 61.3109 39.0993C61.3051 39.0557 61.3047 39.0047 61.3166 38.9595C61.3981 38.6501 62.4087 37.5898 62.7134 37.4943C62.7578 37.4802 62.8087 37.4783 62.8523 37.482C63.3391 37.5237 64.9174 39.035 64.9813 39.5204C64.987 39.5639 64.9874 39.615 64.9755 39.6603C64.8941 39.9696 63.8835 41.0298 63.5788 41.1255ZM61.572 44.1116C61.5274 44.1256 61.4765 44.1273 61.4329 44.1237C60.9462 44.082 58.9187 42.1406 58.8548 41.6552C58.8491 41.6116 58.8486 41.5606 58.8605 41.5154C58.942 41.206 59.9526 40.1459 60.2572 40.0501C60.3019 40.0361 60.3527 40.0343 60.3964 40.038C60.8831 40.0798 62.9106 42.0211 62.9743 42.5065C62.9802 42.55 62.9806 42.6011 62.9687 42.6463C62.8872 42.9557 61.8765 44.0158 61.572 44.1116ZM59.3751 46.9038C59.3265 46.9191 59.2706 46.9212 59.2229 46.9172C58.6911 46.8714 56.5046 44.7778 56.4347 44.2476C56.4284 44.1999 56.4281 44.144 56.441 44.0944C56.5303 43.7564 57.635 42.5973 57.968 42.4925C58.0167 42.4772 58.0726 42.4752 58.1203 42.4793C58.6521 42.525 60.8386 44.6185 60.9083 45.1488C60.9145 45.1963 60.9151 45.2525 60.902 45.3018C60.8129 45.64 59.708 46.799 59.3751 46.9038ZM56.9047 49.9539C56.8505 49.971 56.7882 49.9732 56.7351 49.9686C56.142 49.9177 53.8185 47.693 53.7407 47.1015C53.7337 47.0484 53.7331 46.986 53.7476 46.931C53.847 46.5539 55.079 45.2616 55.4503 45.1448C55.5044 45.1279 55.5667 45.1255 55.6198 45.1302C56.2129 45.1811 58.5364 47.4058 58.6142 47.9972C58.6211 48.0503 58.6218 48.1127 58.6073 48.1678C58.5079 48.5448 57.2761 49.8372 56.9047 49.9539ZM54.1857 53.1493C54.1264 53.1678 54.0584 53.1703 54.0003 53.1653C53.3518 53.1097 50.9589 50.8185 50.8739 50.1718C50.8663 50.114 50.8657 50.0456 50.8814 49.9856C50.9902 49.5731 52.3368 48.1603 52.7429 48.0326C52.802 48.0141 52.8702 48.0116 52.9283 48.0166C53.5767 48.0722 55.9697 50.3634 56.0546 51.0101C56.0623 51.068 56.0629 51.1363 56.0472 51.1965C55.9384 51.6088 54.5916 53.0216 54.1857 53.1493ZM47.7459 53.3219C47.748 53.2977 47.7517 53.2737 47.7577 53.2509C47.8726 52.8153 49.2962 51.3218 49.7252 51.1869C49.7877 51.1673 49.8598 51.1646 49.9211 51.1698C50.4115 51.2119 51.7784 52.3993 52.5495 53.3219H47.7459ZM58.0377 31.2803C58.027 31.3211 58.0271 31.3674 58.0324 31.4066C58.0902 31.8455 59.6307 33.3205 60.0712 33.3586C60.1104 33.362 60.1565 33.3601 60.1969 33.3477C60.4723 33.2611 61.3871 32.3016 61.4607 32.0219C61.4713 31.9808 61.4712 31.9343 61.466 31.8952C61.4079 31.4562 59.8673 29.9811 59.4273 29.9432C59.388 29.9396 59.3416 29.9418 59.3015 29.9545C59.026 30.041 58.1114 31.0005 58.0377 31.2803ZM54.6486 32.5748C54.6368 32.6201 54.6372 32.6712 54.6428 32.7146C54.7067 33.2 56.7813 35.1865 57.268 35.2283C57.3116 35.232 57.3625 35.23 57.4072 35.2161C57.7116 35.1204 58.7222 34.06 58.8037 33.7507C58.8156 33.7056 58.8152 33.6545 58.8094 33.611C58.7456 33.1256 56.6711 31.1392 56.1844 31.0974C56.1407 31.0938 56.0899 31.0957 56.0453 31.1095C55.7406 31.2053 54.73 32.2656 54.6486 32.5748ZM51.5257 34.4923C51.514 34.5376 51.5144 34.5887 51.5201 34.6322C51.584 35.1176 53.7825 37.2227 54.2692 37.2645C54.3128 37.2683 54.3638 37.2664 54.4084 37.2524C54.713 37.1568 55.7236 36.0964 55.8051 35.7871C55.8168 35.7419 55.8164 35.6907 55.8108 35.6473C55.7469 35.1619 53.5484 33.0569 53.0616 33.0151C53.018 33.0114 52.967 33.0131 52.9226 33.0271C52.6179 33.1229 51.6073 34.183 51.5257 34.4923ZM48.6558 36.6402C48.6428 36.6895 48.6432 36.7455 48.6494 36.7932C48.7192 37.3235 50.9527 39.462 51.4846 39.5077C51.5323 39.5118 51.5881 39.5096 51.6368 39.4945C51.9698 39.3897 53.0747 38.2307 53.1638 37.8925C53.1767 37.843 53.1762 37.7871 53.1702 37.7396C53.1002 37.2092 50.8667 35.0705 50.335 35.0248C50.2873 35.0208 50.2313 35.0227 50.1827 35.0382C49.8496 35.1428 48.7449 36.3019 48.6558 36.6402ZM45.6015 39.1312C45.587 39.1862 45.5877 39.2488 45.5946 39.3017C45.6725 39.8932 47.8717 41.9992 48.465 42.0501C48.5181 42.0546 48.5804 42.0524 48.6345 42.0354C49.006 41.9185 50.2378 40.6262 50.3372 40.2491C50.3517 40.1941 50.3511 40.1317 50.3441 40.0786C50.2663 39.4871 48.0668 37.3812 47.4738 37.3303C47.4206 37.3258 47.3584 37.3279 47.304 37.345C46.9328 37.4618 45.7009 38.7541 45.6015 39.1312ZM42.5314 41.9902C42.5153 42.0501 42.5156 42.1185 42.5235 42.1765C42.6085 42.823 44.8772 44.9954 45.5259 45.0512C45.5838 45.0562 45.6519 45.0534 45.7112 45.0349C46.1171 44.9076 47.4641 43.4945 47.5724 43.0822C47.5883 43.0219 47.588 42.9536 47.5803 42.896C47.495 42.249 45.2263 40.0767 44.5779 40.0211C44.5197 40.0159 44.4516 40.0187 44.3926 40.0374C43.9867 40.1648 42.6398 41.5779 42.5314 41.9902ZM39.099 44.96C39.0819 45.0234 39.0824 45.0956 39.0905 45.157C39.1803 45.8403 41.5784 48.1364 42.2639 48.1954C42.3252 48.2005 42.3972 48.1977 42.4598 48.178C42.8887 48.0435 44.3126 46.5499 44.427 46.1143C44.4438 46.0506 44.4433 45.9783 44.4353 45.9173C44.3453 45.2337 41.9473 42.9375 41.262 42.8787C41.2005 42.8733 41.1285 42.8762 41.066 42.8961C40.6372 43.0307 39.2135 44.5243 39.099 44.96ZM35.5453 48.2917C35.5276 48.3581 35.5281 48.4336 35.5366 48.4976C35.6306 49.2116 38.1365 51.611 38.8526 51.6725C38.9166 51.6779 38.9919 51.6751 39.0573 51.6545C39.5056 51.514 40.9935 49.953 41.1131 49.4978C41.1306 49.4314 41.13 49.356 41.1216 49.2921C41.0275 48.5778 38.5219 46.1784 37.8056 46.1171C37.7415 46.1115 37.6663 46.1144 37.601 46.135C37.1529 46.2757 35.6651 47.8366 35.5453 48.2917ZM31.8173 51.7409C31.7989 51.8099 31.7995 51.8885 31.8083 51.9551C31.8452 52.2359 32.2402 52.7666 32.7574 53.3219H37.439C37.5292 53.1888 37.591 53.0761 37.612 52.9963C37.6302 52.9271 37.6296 52.8485 37.6209 52.782C37.523 52.0385 34.9152 49.5415 34.1698 49.4776C34.103 49.4719 34.0247 49.4748 33.9567 49.4963C33.4903 49.6427 31.9419 51.2673 31.8173 51.7409ZM60.9996 34.1162C60.9889 34.1571 60.9893 34.2035 60.9945 34.2428C61.0522 34.682 62.2206 35.8006 62.6607 35.8383C62.7002 35.8418 62.7465 35.8399 62.7868 35.8274C63.0622 35.7408 63.9767 34.7814 64.0505 34.5016C64.0612 34.4607 64.061 34.4143 64.0558 34.3749C63.998 33.936 62.8296 32.8173 62.3894 32.7794C62.3499 32.7761 62.3036 32.7777 62.2635 32.7904C61.9878 32.877 61.0735 33.8364 60.9996 34.1162ZM58.2415 36.015C58.2296 36.0603 58.23 36.1114 58.2357 36.1549C58.2996 36.6402 59.8779 38.1514 60.3647 38.1932C60.4083 38.1969 60.4592 38.1951 60.5036 38.1811C60.8083 38.0854 61.8189 37.0252 61.9004 36.7158C61.9123 36.6707 61.9119 36.6196 61.9062 36.576C61.8423 36.0906 60.264 34.5794 59.7772 34.5376C59.7336 34.5338 59.6828 34.5357 59.6382 34.5497C59.3335 34.6455 58.3229 35.7057 58.2415 36.015ZM55.3569 38.1605C55.345 38.2059 55.3454 38.2569 55.3512 38.3005C55.415 38.7857 57.4425 40.7272 57.9292 40.769C57.9728 40.7727 58.0237 40.7707 58.0684 40.7569C58.3728 40.6611 59.3835 39.6009 59.4651 39.2916C59.4768 39.2463 59.4765 39.1952 59.4707 39.1517C59.4068 38.6664 57.3793 36.7249 56.8928 36.6833C56.849 36.6795 56.7981 36.6814 56.7534 36.6952C56.449 36.791 55.4384 37.8513 55.3569 38.1605ZM52.674 40.4876C52.6611 40.5369 52.6615 40.5931 52.6679 40.6407C52.7376 41.1709 54.9241 43.2644 55.4558 43.3103C55.5035 43.3143 55.5595 43.3122 55.6082 43.2971C55.941 43.1923 57.0459 42.0332 57.1351 41.695C57.1481 41.6456 57.1478 41.5895 57.1414 41.542C57.0714 41.0116 54.8851 38.918 54.3532 38.8724C54.3056 38.8684 54.2495 38.8703 54.2011 38.8858C53.8681 38.9904 52.7633 40.1495 52.674 40.4876ZM49.7467 43.1003C49.7322 43.1552 49.7329 43.2179 49.7398 43.2707C49.8176 43.8622 52.1411 46.087 52.7342 46.138C52.7875 46.1425 52.8496 46.1402 52.9039 46.1231C53.2752 46.0064 54.507 44.7141 54.6064 44.337C54.621 44.282 54.6204 44.2196 54.6133 44.1665C54.5355 43.575 52.212 41.3502 51.6191 41.2994C51.5658 41.2948 51.5036 41.297 51.4494 41.3141C51.078 41.4308 49.8461 42.7231 49.7467 43.1003ZM46.686 45.9685C46.6703 46.0286 46.6709 46.0969 46.6785 46.1549C46.7635 46.8015 49.1564 49.0927 49.8049 49.1484C49.863 49.1534 49.9311 49.1507 49.9903 49.1323C50.3963 49.0046 51.743 47.5917 51.8518 47.1794C51.8675 47.1192 51.8669 47.0509 51.8593 46.993C51.7743 46.3463 49.3813 44.0551 48.7329 43.9995C48.6749 43.9945 48.6066 43.9971 48.5475 44.0155C48.1416 44.1434 46.7948 45.5562 46.686 45.9685ZM43.5174 49.1906C43.5003 49.254 43.5008 49.3262 43.5088 49.3876C43.5987 50.0709 45.9967 52.367 46.6823 52.4259C46.7435 52.4311 46.8155 52.4283 46.8782 52.4086C47.3071 52.2741 48.731 50.7805 48.8453 50.3447C48.8621 50.2812 48.8618 50.2089 48.8539 50.1478C48.7636 49.4643 46.3657 47.1681 45.6804 47.1093C45.6189 47.1039 45.5469 47.1068 45.4845 47.1269C45.0556 47.2613 43.6319 48.7549 43.5174 49.1906ZM40.0048 52.5618C39.9871 52.628 39.9876 52.7033 39.9961 52.7675C40.0216 52.9617 40.2257 53.2807 40.5236 53.6432C41.0616 53.7846 41.5459 53.9723 41.9763 54.207V53.3219H44.3986H45.4954C45.0359 52.4211 42.9146 50.4427 42.2651 50.3869C42.201 50.3814 42.1258 50.3843 42.0605 50.405C41.6123 50.5457 40.1244 52.1065 40.0048 52.5618ZM66.4294 31.5166C66.4018 31.5252 66.3698 31.5265 66.3429 31.524C66.0399 31.4981 64.9799 30.4833 64.9405 30.1811C64.9368 30.1543 64.9365 30.1222 64.9437 30.0941C64.9946 29.9017 65.6237 29.2418 65.8134 29.1819C65.8408 29.1733 65.8728 29.1722 65.9 29.1745C66.2028 29.2004 67.2626 30.2152 67.3024 30.5173C67.3061 30.5444 67.3062 30.5763 67.2989 30.6044C67.2479 30.797 66.6189 31.4569 66.4294 31.5166ZM66.8927 32.0921L66.8906 32.0934L66.8915 32.0941L66.8927 32.0921ZM61.8948 45.5551C61.8374 45.4411 61.8006 45.3393 61.7894 45.2546C61.7814 45.193 61.7775 45.1249 61.7802 45.0567C61.783 44.9857 61.793 44.9107 61.8122 44.8358L61.8129 44.833L61.822 44.8017L61.7899 44.8128C61.7157 44.8361 61.6443 44.8496 61.5782 44.8558C61.6068 44.9281 61.6259 44.9946 61.6337 45.0539C61.642 45.118 61.6462 45.1885 61.6432 45.2591C61.64 45.3358 61.6299 45.4139 61.6102 45.4886C61.5954 45.5451 61.5694 45.6093 61.534 45.6793C61.6024 45.6405 61.6655 45.6114 61.7213 45.5938C61.7802 45.5755 61.8385 45.5628 61.8948 45.5551ZM59.7806 47.5193C59.712 47.5583 59.6489 47.5875 59.5929 47.605C59.5156 47.6293 59.4381 47.6437 59.3645 47.6499C59.3378 47.6521 59.3115 47.6529 59.2852 47.6521L59.265 47.6527C59.3042 47.7445 59.3299 47.8284 59.3396 47.9023L59.3431 47.9358C59.3491 47.9927 59.3519 48.0537 59.3497 48.1141L59.3494 48.1199C59.3465 48.1971 59.336 48.2769 59.3155 48.3547C59.2885 48.4571 59.2258 48.5848 59.1383 48.7264C59.2758 48.6319 59.4005 48.5632 59.5016 48.5314C59.5204 48.5255 59.5392 48.5205 59.558 48.5163C59.6208 48.5001 59.6825 48.4898 59.7412 48.4851C59.7612 48.4836 59.7811 48.4829 59.801 48.483C59.7352 48.355 59.6932 48.2404 59.6806 48.1449V48.1419C59.6725 48.0779 59.6684 48.008 59.6712 47.9398C59.6744 47.8633 59.6846 47.7851 59.7042 47.7101C59.7192 47.6536 59.7452 47.5893 59.7806 47.5193ZM63.9934 42.8056C63.8192 42.5518 63.7041 42.3254 63.6822 42.1593C63.6741 42.0978 63.6703 42.0296 63.673 41.9614C63.6743 41.9269 63.6774 41.8916 63.6823 41.8557C63.6464 41.8628 63.6111 41.8676 63.5772 41.8706H63.5743C63.5364 41.8738 63.4987 41.8748 63.4624 41.8744C63.5949 42.083 63.681 42.2689 63.6997 42.4116C63.7076 42.4721 63.7119 42.54 63.7091 42.6093C63.7063 42.6836 63.6964 42.7594 63.6769 42.8331L63.6678 42.8642L63.6994 42.8533C63.7754 42.8296 63.8497 42.8153 63.9188 42.8094C63.944 42.8074 63.9689 42.8059 63.9934 42.8056ZM62.8232 36.7463C62.8188 36.6992 62.8171 36.6493 62.8188 36.5994L62.8191 36.5937L62.8205 36.5682L62.7908 36.5713H62.7879C62.7537 36.5741 62.7159 36.5747 62.6766 36.5734L62.64 36.5732C62.6419 36.608 62.6421 36.6434 62.6408 36.679C62.6397 36.7057 62.6378 36.7326 62.6349 36.7597C62.6628 36.7548 62.6895 36.7514 62.7149 36.7492L62.715 36.7517C62.7544 36.7482 62.7904 36.7466 62.8232 36.7463ZM60.5823 38.9159C60.555 38.9205 60.5282 38.9239 60.5023 38.9261C60.4456 38.931 60.3891 38.9308 60.3364 38.9279L60.3045 38.9259C60.2578 38.922 60.2076 38.9121 60.1545 38.8975C60.1756 38.9551 60.1897 39.0083 60.196 39.0568C60.2039 39.1172 60.2082 39.1848 60.2054 39.2544C60.2047 39.2732 60.2035 39.2923 60.2016 39.3117C60.2211 39.3089 60.2401 39.3067 60.2587 39.3051L60.2878 39.3032C60.3455 39.2998 60.4021 39.3011 60.4538 39.3053L60.4566 39.3056L60.4814 39.3081C60.5288 39.3135 60.5746 39.3235 60.6187 39.3373C60.6027 39.2869 60.5914 39.2391 60.5855 39.1942C60.5774 39.1324 60.5736 39.0644 60.5762 38.9963C60.5773 38.9697 60.5793 38.9429 60.5823 38.9159ZM57.4857 50.4604C57.3984 50.6019 57.3358 50.7295 57.3088 50.832C57.29 50.9029 57.2794 50.9786 57.2755 51.0541L57.2752 51.0596L57.2749 51.0632L57.2746 51.0698C57.2721 51.1298 57.2747 51.1899 57.2806 51.2465L57.2846 51.2843C57.2888 51.3167 57.2954 51.3504 57.3043 51.385L57.2676 51.381C57.1994 51.3753 57.124 51.3744 57.0479 51.3808L57.0481 51.3833L57.045 51.3836C56.9857 51.3889 56.9262 51.3981 56.8691 51.4116C56.8474 51.4163 56.8257 51.4219 56.8041 51.4287C56.7809 51.4359 56.7571 51.4447 56.7326 51.4547C56.7418 51.4298 56.7493 51.406 56.7554 51.3833C56.7765 51.3026 56.7871 51.2202 56.7903 51.1409L56.7906 51.1351C56.7935 51.0589 56.789 50.9833 56.78 50.9152C56.7716 50.8514 56.7526 50.7808 56.7238 50.7048C56.7675 50.7068 56.8139 50.7065 56.8608 50.7034L56.8634 50.7033H56.8657L56.8889 50.7017C56.9657 50.695 57.046 50.6803 57.1253 50.6547C57.2259 50.6225 57.3495 50.5539 57.4857 50.4604ZM50.2076 50.4841C50.127 50.459 50.0512 50.4431 49.9813 50.4371C49.9122 50.4312 49.835 50.43 49.7564 50.4368L49.7566 50.4393L49.7535 50.4396C49.6901 50.4454 49.6271 50.4549 49.5678 50.469C49.5798 50.4081 49.5869 50.3456 49.5896 50.2839C49.5932 50.2046 49.5886 50.1252 49.5792 50.0529C49.5703 49.9851 49.5499 49.9104 49.5195 49.8299C49.6017 49.8578 49.6771 49.8754 49.7447 49.8811C49.8124 49.8868 49.8878 49.8876 49.9639 49.8814C49.9972 49.8786 50.0298 49.8737 50.0616 49.8667C50.0955 49.8612 50.1293 49.8543 50.162 49.8458C50.1482 49.911 50.1409 49.9769 50.1383 50.0412L50.138 50.0469C50.135 50.1231 50.1396 50.1989 50.1485 50.2667C50.1572 50.3324 50.1773 50.4053 50.2076 50.4841ZM52.5714 47.3177C52.5851 47.2527 52.5924 47.1872 52.5952 47.1238L52.5959 47.0946V47.0859C52.5968 47.0206 52.5923 46.9566 52.5846 46.8981C52.5829 46.8841 52.5805 46.87 52.5776 46.8554C52.6103 46.8629 52.6416 46.868 52.6711 46.8707C52.7289 46.8757 52.8019 46.8757 52.8876 46.868L52.8879 46.8708C52.9298 46.8673 52.9731 46.8608 53.0175 46.8516C53.0118 46.8895 53.0082 46.9279 53.0061 46.9663L53.0058 46.9719L53.0055 46.9754L53.0052 46.9821C53.0021 47.0581 53.0065 47.1329 53.0158 47.1992C53.0198 47.2278 53.0259 47.258 53.0344 47.2894C53.0187 47.2869 53.0035 47.2852 52.9885 47.2839C52.9201 47.2781 52.8437 47.2769 52.7661 47.2839C52.7019 47.2893 52.6362 47.3002 52.5714 47.3177ZM47.0357 53.1271L47.0355 53.1276L47.0278 53.1681L47.0266 53.1749C47.0169 53.2222 47.0119 53.2715 47.0119 53.3219H46.2294C46.2294 53.2118 46.2052 53.1075 46.1619 53.0136C46.3363 53.0962 46.4928 53.1476 46.6221 53.1587C46.6829 53.1638 46.7591 53.1638 46.8469 53.1562L46.847 53.1587C46.9084 53.1535 46.972 53.1432 47.0357 53.1271ZM42.9078 49.8555C42.6857 49.7401 42.4863 49.668 42.3253 49.6542C42.2535 49.6482 42.1736 49.647 42.0928 49.6539C42.0594 49.6569 42.0267 49.662 41.995 49.6691C41.9452 49.6776 41.8943 49.6895 41.8432 49.7056L41.8426 49.7038L41.813 49.7139L41.8213 49.6847C41.843 49.602 41.8545 49.515 41.8579 49.4303C41.8612 49.3496 41.8566 49.2694 41.847 49.1972C41.8304 49.0715 41.7755 48.9225 41.6907 48.7574C41.8864 48.8551 42.0615 48.9159 42.2037 48.9281C42.2645 48.9332 42.3407 48.9332 42.4286 48.9256L42.4288 48.9281C42.5094 48.9213 42.5942 48.9054 42.6776 48.8792C42.7435 48.8586 42.8192 48.823 42.9018 48.7752C42.8586 48.8586 42.8269 48.9349 42.8092 49.0009C42.7882 49.0792 42.7769 49.1651 42.7731 49.2512C42.7694 49.3311 42.7742 49.4107 42.7835 49.4825C42.7977 49.5908 42.841 49.7169 42.9078 49.8555ZM39.3046 52.3468L39.2966 52.3749C39.2751 52.4561 39.2635 52.5419 39.26 52.6265C39.2565 52.7082 39.261 52.7892 39.2707 52.8624C39.2944 53.0426 39.3676 53.2367 39.4799 53.4365C39.0979 53.3831 38.6948 53.3485 38.2697 53.3323C38.2902 53.2818 38.3074 53.232 38.3202 53.1831C38.342 53.1003 38.3536 53.0121 38.3573 52.9246C38.3605 52.8431 38.356 52.7611 38.3463 52.6871C38.3271 52.5417 38.2575 52.3652 38.1497 52.1688C38.398 52.3049 38.6192 52.3903 38.7924 52.4052C38.8545 52.4105 38.9319 52.4108 39.022 52.4029L39.0222 52.4053C39.107 52.3981 39.1941 52.3823 39.2781 52.3558L39.3046 52.3468ZM45.0419 46.5301C45.1249 46.482 45.2006 46.4464 45.2667 46.4256L45.2673 46.4275C45.3138 46.4129 45.3612 46.4015 45.4086 46.3929C45.4424 46.3851 45.4772 46.3794 45.5129 46.3763C45.5603 46.3723 45.613 46.3719 45.6676 46.3743C45.6917 46.374 45.7161 46.3745 45.7406 46.3766C45.8184 46.3832 45.9062 46.4044 46.0014 46.4383C45.9771 46.3704 45.9606 46.3073 45.9531 46.2498C45.9455 46.1912 45.941 46.1271 45.9418 46.0619V46.0531L45.9426 46.0241C45.9461 45.9446 45.9567 45.8621 45.9778 45.7816C45.9838 45.7586 45.9916 45.7345 46.001 45.7092C45.9759 45.7198 45.952 45.7289 45.9291 45.7361C45.8828 45.7507 45.8332 45.7616 45.782 45.7697C45.7513 45.7764 45.7197 45.7813 45.6876 45.7841C45.6109 45.7907 45.5345 45.7898 45.4658 45.7839C45.3689 45.7757 45.2564 45.7441 45.1327 45.6936C45.1459 45.7389 45.1554 45.7819 45.1607 45.8223C45.1699 45.894 45.1748 45.9735 45.1713 46.0538C45.1674 46.1366 45.1561 46.2209 45.1351 46.3011C45.1177 46.3679 45.0857 46.4452 45.0419 46.5301ZM48.3 42.7659L48.3057 42.8011C48.3149 42.8707 48.3192 42.9482 48.316 43.0262C48.3133 43.0869 48.3061 43.1496 48.2934 43.2113C48.2898 43.2306 48.2857 43.2498 48.2806 43.2691C48.2746 43.2921 48.2668 43.3162 48.2574 43.3415C48.2825 43.3307 48.3067 43.3215 48.3296 43.3143H48.3324C48.3807 43.2993 48.4312 43.2881 48.4824 43.28C48.5131 43.2735 48.5445 43.269 48.5767 43.2665C48.6524 43.2603 48.7267 43.2612 48.7931 43.2668C48.858 43.2723 48.9306 43.2888 49.0092 43.3149C49.0054 43.2732 49.0033 43.2297 49.0036 43.1858V43.1795L49.0043 43.148C49.0077 43.0687 49.0181 42.9875 49.0385 42.9107C49.0661 42.8087 49.1285 42.682 49.2154 42.5417C49.1368 42.5957 49.0623 42.6413 48.9941 42.6764C48.9509 42.7007 48.9045 42.721 48.8553 42.7366C48.7759 42.7618 48.6956 42.7765 48.6188 42.7831H48.6159C48.5412 42.7894 48.4676 42.7886 48.4019 42.7828C48.3697 42.7799 48.3356 42.7741 48.3 42.7659ZM55.3365 44.4166C55.3814 44.4073 55.4259 44.401 55.4693 44.3975C55.5444 44.3909 55.6176 44.3917 55.6829 44.3975L55.7204 44.4016C55.7157 44.3812 55.7119 44.3614 55.7094 44.3425C55.701 44.2786 55.6969 44.2081 55.6998 44.1378L55.7003 44.1293L55.7009 44.1198C55.7026 44.0886 55.7057 44.0575 55.71 44.0263L55.691 44.0295C55.6605 44.0361 55.6294 44.0405 55.5975 44.0432C55.5398 44.048 55.482 44.0479 55.4285 44.0449L55.3956 44.043C55.3757 44.0413 55.3548 44.0383 55.3332 44.0342L55.3387 44.0688C55.3475 44.135 55.352 44.2097 55.3488 44.286C55.347 44.3297 55.3429 44.3735 55.3365 44.4166ZM50.8679 40.8083C50.9467 40.7541 51.0214 40.7082 51.0899 40.673C51.133 40.6488 51.1794 40.6285 51.2286 40.6129C51.3083 40.5877 51.3885 40.573 51.4651 40.5664H51.468C51.543 40.56 51.6164 40.5609 51.6822 40.5667C51.7559 40.5733 51.8403 40.5952 51.9331 40.6304C51.9316 40.5979 51.9315 40.5644 51.9328 40.5306C51.936 40.4542 51.9462 40.3758 51.9658 40.3008C51.9808 40.2443 52.0068 40.18 52.0422 40.11C51.9738 40.1488 51.9105 40.1782 51.8547 40.1957H51.8519C51.7725 40.2203 51.6962 40.2347 51.6258 40.2406L51.6257 40.2381C51.5452 40.2452 51.4776 40.245 51.4244 40.2405C51.3284 40.2322 51.2118 40.195 51.0806 40.1347C51.0807 40.1556 51.0805 40.1768 51.0796 40.1981C51.0762 40.2786 51.0655 40.3595 51.0454 40.436C51.0184 40.5386 50.9557 40.6666 50.8679 40.8083ZM53.9016 37.9039C53.8966 37.9627 53.8869 38.0218 53.872 38.0793C53.8571 38.1358 53.8308 38.2003 53.7956 38.2702L53.8319 38.2502C53.8778 38.2234 53.9274 38.2012 53.9803 38.1845C54.0239 38.1707 54.0716 38.1603 54.1212 38.1526C54.1506 38.1466 54.1805 38.142 54.2112 38.1395C54.2814 38.1336 54.3513 38.1344 54.4134 38.1397C54.4737 38.1448 54.5423 38.1613 54.617 38.1875C54.6204 38.1166 54.6302 38.0436 54.6487 37.9737L54.6578 37.9428L54.6262 37.9537C54.5636 37.9732 54.5006 37.9865 54.4398 37.9938L54.4065 37.9975C54.3359 38.0036 54.2673 38.0025 54.2061 37.9972C54.1209 37.9893 54.0179 37.9566 53.9016 37.9039ZM57.8728 41.502C57.8769 41.5501 57.8784 41.6009 57.8764 41.6518C57.875 41.6881 57.8718 41.7251 57.8665 41.762C57.9048 41.7546 57.9424 41.7495 57.9788 41.7464C58.0051 41.7442 58.0312 41.7436 58.0569 41.7442C58.0826 41.7433 58.1065 41.7432 58.1286 41.7437C58.1211 41.6836 58.1177 41.6179 58.1202 41.5522C58.1209 41.5333 58.1221 41.5144 58.1239 41.4952C58.1043 41.498 58.0853 41.5002 58.0666 41.5019H58.0637C58.0055 41.5069 57.9481 41.5067 57.895 41.5033L57.8728 41.502ZM56.5042 36.0049L56.5356 35.994H56.5384C56.6165 35.9698 56.6902 35.956 56.7583 35.9503C56.8282 35.9442 56.8955 35.9453 56.9559 35.9506C57.0993 35.9637 57.2885 36.0421 57.5024 36.1655C57.5002 36.1285 57.4997 36.0902 57.5011 36.0518C57.5024 36.0169 57.5054 35.9816 57.5101 35.9462C57.4873 35.9504 57.4646 35.9542 57.4423 35.957L57.4054 35.9612C57.3483 35.966 57.2913 35.966 57.2388 35.9629L57.2078 35.961C57.0404 35.9466 56.8083 35.8408 56.5457 35.6765L56.5462 35.7156L56.546 35.7274L56.5457 35.7438L56.5454 35.7534C56.5431 35.8034 56.5375 35.856 56.5272 35.9094C56.5235 35.9309 56.5188 35.9525 56.5133 35.974L56.5042 36.0049ZM17.4474 73.9644C17.6289 74.0501 17.7911 74.1032 17.9251 74.1146L17.9489 74.1163C18.0087 74.1201 18.0803 74.1194 18.1621 74.1122L18.1622 74.1146C18.2264 74.1092 18.2945 74.0976 18.3635 74.0795C18.3495 74.1458 18.3419 74.2135 18.3391 74.2803L18.3387 74.2956L18.3385 74.2993V74.3034C18.3368 74.3788 18.3413 74.4532 18.3503 74.5207C18.3685 74.6592 18.4177 74.8085 18.4928 74.9649C18.3306 74.8952 18.1787 74.8516 18.0426 74.84C17.9783 74.8346 17.8989 74.8343 17.8055 74.8427L17.8052 74.8399C17.7397 74.8455 17.6719 74.8567 17.6044 74.8743C17.6179 74.808 17.6257 74.7395 17.6284 74.6714C17.6317 74.5897 17.6271 74.5082 17.6174 74.4338C17.6 74.3006 17.5402 74.1413 17.4474 73.9644ZM14.9087 77.7042C14.8949 77.7699 14.8872 77.8378 14.8842 77.9049L14.8838 77.9208L14.8836 77.9238V77.928C14.8819 78.0033 14.8864 78.0776 14.8954 78.1451C14.9128 78.2784 14.9727 78.4378 15.0655 78.6146C14.8841 78.5292 14.7218 78.476 14.5878 78.4646C14.5146 78.4584 14.4328 78.4572 14.3506 78.4643C14.3217 78.4668 14.2932 78.471 14.2654 78.4768C14.2113 78.4846 14.159 78.4955 14.1097 78.5099C14.1318 78.4591 14.149 78.4119 14.1603 78.3688C14.1822 78.2857 14.1938 78.1977 14.1975 78.1103C14.2007 78.0286 14.1961 77.9471 14.1865 77.8726C14.1775 77.8042 14.1574 77.729 14.1274 77.648C14.2535 77.6984 14.3682 77.7301 14.4673 77.739C14.5326 77.7446 14.6137 77.7449 14.707 77.7367L14.7072 77.7392C14.7715 77.7336 14.8393 77.7226 14.9087 77.7042ZM18.5339 81.9373C18.7154 82.0228 18.8778 82.076 19.0118 82.0875L19.037 82.0891C19.1038 82.0935 19.1765 82.0938 19.249 82.0876C19.3296 82.0807 19.4159 82.0644 19.5028 82.0373C19.5826 82.0125 19.6649 81.9758 19.7492 81.9293V83.0221C19.7235 83.0089 19.6984 82.9965 19.6737 82.9847C19.5026 82.9034 19.3378 82.8499 19.1849 82.8308L19.1744 82.8295L19.1463 82.8264C19.0988 82.8224 19.0438 82.8213 18.9813 82.8239C18.9575 82.8235 18.9335 82.8242 18.9093 82.8263C18.8374 82.8324 18.7621 82.8454 18.6869 82.8663C18.7031 82.7943 18.712 82.7191 18.7151 82.6443C18.7183 82.5629 18.7138 82.4809 18.7041 82.4068C18.6866 82.2735 18.6269 82.1141 18.5339 81.9373Z" fill="white"/>
</svg>
