<svg width="96" height="97" viewBox="0 0 96 97" fill="none" xmlns="http://www.w3.org/2000/svg">
<path fill-rule="evenodd" clip-rule="evenodd" d="M78.8453 96.4921C92.2461 96.4921 96.1378 100.268 95.9963 87.2286C95.8989 78.2474 95.8793 69.295 95.8793 60.3077C95.8793 42.5757 95.8793 24.8438 95.8793 7.11185C83.5854 11.4629 64.6633 17.6807 52.5486 23.3914C41.7506 28.4812 37.5102 28.0353 33.7442 33.9439C30.4866 39.0542 25.7605 49.6299 24.0543 54.9468C29.5921 59.7509 63.2518 76.6412 73.7324 82.6243C80.7598 86.6362 85.2772 88.9742 78.8453 96.4921ZM7.56371 44.2256L14.3066 49.1874C16.543 46.1433 18.9553 40.834 19.5176 36.7518C14.5247 39.0747 10.4447 39.0136 7.56371 44.2256ZM0 78.702C2.51683 74.9051 10.6764 58.436 11.4131 54.1685C8.5238 51.4206 3.90224 48.2489 0 46.3214L0 78.702ZM83.368 0H42.4216C48.8037 12.1055 42.2857 9.27787 40.7724 20.1612C47.53 18.4479 55.3005 13.0034 61.9106 10.0086C69.238 6.68912 78.2449 3.57776 83.368 0ZM0 40.7223C4.72987 38.3303 21.7756 30.1132 24.7317 27.559C31.4319 21.7704 33.7189 9.54032 31.4414 0H1.33144H0L0 40.7223ZM7.79845 96.4921H70.7902C68.5127 91.3864 70.0509 94.6413 64.9455 91.3883L46.0684 78.2804C40.2086 74.4919 31.8086 65.4757 21.3065 60.7779C17.6684 65.7754 7.13273 87.8747 7.79845 96.4921Z" fill="white"/>
</svg>
