<svg width="112" height="114" viewBox="0 0 112 114" fill="none" xmlns="http://www.w3.org/2000/svg">
<path fill-rule="evenodd" clip-rule="evenodd" d="M29.0086 75.0144C27.9065 75.3669 26.8832 75.8564 25.9385 76.5026C22.4157 78.9698 20.7823 82.6706 20.1722 86.7825C15.9606 86.7825 12.0246 84.237 14.9766 79.753C17.2595 76.248 20.7232 74.9753 24.6593 74.3095C28.2804 73.6829 34.2829 72.9976 37.8647 72.5277C33.2989 81.8677 28.9102 91.4036 24.1082 100.607C22.0418 104.679 19.6605 107.636 16.984 109.496C14.2878 111.357 11.2571 112.296 7.87208 112.296C4.44772 112.296 1.92866 110.652 1.84994 107.049C1.73186 102.036 5.8647 96.7884 10.5486 95.0849C12.2608 94.4778 14.0713 94.4583 15.9606 95.0457C15.3702 95.594 14.7011 96.3772 13.9336 97.3954C11.9459 100.058 7.41943 107.108 7.32103 110.475C7.30135 111.141 7.5572 111.454 8.06888 111.454C12.4576 111.454 29.048 75.0732 29.0086 75.0144ZM41.4071 58.9189L47.4096 58.8798L41.4859 62.8743C41.5055 63.5204 41.5252 64.1666 41.5449 64.8519C44.7134 64.8519 48.0787 65.3023 51.2079 66.5946C66.834 73.0759 57.8795 85.4119 45.4613 87.6441C50.2239 88.7211 53.1759 92.2065 50.952 97.1604C46.4256 107.147 29.4613 109.594 21.3727 107.166L22.0615 106.168C35.9164 109.673 48.6691 96.7101 43.4736 89.5826C42.8241 88.6819 41.7811 88.349 40.6987 88.2903L33.5547 102.839L25.4071 103.975L40.797 72.6256L48.9447 71.4899L41.2891 87.0763C47.9016 86.1951 56.6396 73.4675 49.8303 70.0213C44.4969 67.3387 33.1611 69.1597 27.3358 70.8829C19.385 62.4239 10.2534 55.0223 0 49.0697C12.5166 40.0038 16.433 36.1463 24.2854 22.8901C24.2854 22.8901 30.8979 29.6259 42.4305 31.6036L40.6199 21.5194L71.754 0L68.0344 31.8385C80.5117 30.2525 87.7146 22.8901 87.7146 22.8901C95.5867 36.1463 99.4834 40.0038 112 49.0697C86.7109 63.7554 68.31 87.1546 57.5646 114C59.3358 103.818 63.0554 94.3408 68.0344 85.5294L64.0394 82.8272L69.2546 82.8664C69.4908 80.9866 69.7466 78.8131 69.9631 76.3851C70.1993 73.8983 70.3764 71.2549 70.4945 68.729L56.6986 63.6967L70.6519 64.5191C70.7897 59.8784 70.7897 56.393 70.7897 56.393C61.9336 52.7705 50.2239 52.7705 41.4071 56.393C41.4071 56.393 41.4071 57.3525 41.4071 58.9189ZM75.5523 54.0041C75.5523 54.0041 73.171 51.3411 65.909 49.9313L67.5031 36.3617C72.0689 36.1072 81.3382 34.5603 84.9988 32.4455C88.5609 38.2219 93.6384 43.9591 99.1095 48.0319C90.1156 56.3538 81.4563 65.5177 74.3321 75.6214C75.6113 68.5723 75.5523 54.0041 75.5523 54.0041ZM43.2571 36.2638L45.7171 50.0488C38.9077 51.4782 36.6248 54.0041 36.6248 54.0041C36.6248 54.0041 36.7626 61.4644 36.9004 65.1848C34.3813 65.4981 32.1968 66.0268 30.6224 66.4772C25.1316 59.898 19.0898 53.7691 12.8905 48.0319C18.3616 43.9591 23.4391 38.2219 27.0209 32.4455C30.583 34.5211 38.7897 35.833 43.2571 36.2638ZM62.1304 49.383C57.9582 48.9327 53.353 48.9718 49.1808 49.4809L45.048 23.3209L55.7343 16.9766L57.9385 45.2319L60.556 13.7458L64.8463 11.3961L62.1304 49.383Z" fill="white"/>
</svg>
