<svg width="67" height="103" viewBox="0 0 67 103" fill="none" xmlns="http://www.w3.org/2000/svg">
<path d="M13.9443 31.8027C14.8568 31.0264 14.9681 29.6586 14.1914 28.7446C11.9197 26.073 10.6682 22.6673 10.6682 19.1535C10.6682 10.983 17.3173 4.33785 25.4898 4.33785C33.6622 4.33785 40.3113 10.983 40.3113 19.1535C40.3113 22.6708 39.058 26.0799 36.7829 28.7519C36.0062 29.664 36.1157 31.0333 37.0282 31.8081C37.4359 32.1559 37.9353 32.327 38.4332 32.327C39.0474 32.327 39.6564 32.0673 40.0853 31.5626C43.0278 28.1058 44.648 23.6994 44.648 19.1535C44.648 8.59228 36.0538 0 25.4898 0C14.9257 0 6.32967 8.59228 6.32967 19.1535C6.32967 23.694 7.94819 28.0986 10.8855 31.5541C11.6621 32.4662 13.0299 32.5773 13.9443 31.8027ZM66.6517 61.3875C65.2906 53.2718 59.5683 51.9766 56.8802 51.8229C56.033 51.775 55.2476 51.3463 54.783 50.6371C52.8346 47.6636 50.2255 46.8786 48.0069 46.8786C46.415 46.8786 45.0258 47.2842 44.2315 47.577C44.131 47.614 44.0291 47.6302 43.9278 47.6302C43.6137 47.6302 43.3136 47.4609 43.146 47.175C41.1673 43.7813 38.3555 42.9062 35.9815 42.9062C34.5977 42.9062 33.3639 43.2026 32.5289 43.4722C32.4425 43.5006 32.2535 43.5131 32.1676 43.5131C31.7136 43.5131 31.214 43.1407 31.214 42.6556V25.2083C31.214 21.2201 28.2416 19.2274 25.2497 19.2274C22.2578 19.2274 19.2854 21.2201 19.2854 25.2083V55.8954C19.2854 57.6994 17.9068 58.8144 16.4225 58.8144C15.5206 58.8144 14.6521 58.4032 14.0537 57.4857L11.1854 53.0477C9.91646 50.9547 8.08423 50.0883 6.25905 50.0864C3.1075 50.0864 0.00892052 52.6731 0 56.0028V56.0424C0.00483195 57.0597 0.297723 58.1449 0.965461 59.2465L23.5552 102.504C23.7035 102.786 23.9983 103 24.3177 103H56.0415C56.4933 103 56.8693 102.612 56.896 102.16L57.6903 89.2159C57.6989 89.0658 57.7487 88.9123 57.8314 88.7873C65.7056 76.8636 67.9593 69.1784 66.6517 61.3875ZM25.4333 14.8903C30.2149 14.8903 34.0416 17.8194 35.3071 22.0741C35.5825 21.1475 35.7325 20.1698 35.7325 19.1535C35.7325 13.4979 31.1469 8.91316 25.4898 8.91316C19.8326 8.91316 15.2468 13.4979 15.2468 19.1535C15.2468 20.1031 15.3794 21.0187 15.6193 21.8907C16.9414 17.7368 20.7222 14.8903 25.4333 14.8903Z" fill="white"/>
</svg>
